<?xml version="1.0" encoding="utf-8"?>
<!-- Generator: Adobe Illustrator 22.0.1, SVG Export Plug-In . SVG Version: 6.00 Build 0)  -->
<svg version="1.1" id="Слой_1" xmlns="http://www.w3.org/2000/svg" xmlns:xlink="http://www.w3.org/1999/xlink" x="0px" y="0px"
	 viewBox="0 0 24 24.1" style="enable-background:new 0 0 24 24.1;" xml:space="preserve">
<style type="text/css">
	.st0{opacity:0.7;fill:#673AB7;}
</style>
<title>block, deny, acccess, disable</title>
<path class="st0" d="M0.1,13.6C1,20.2,7,24.8,13.6,24s11.2-6.9,10.3-13.5C23.2,5.1,19,0.9,13.6,0.2C7-0.7,1,4,0.1,10.6
	C0,11.6,0,12.6,0.1,13.6z M7.1,4.6c4.1-2.8,9.7-1.6,12.5,2.5c2,3,2,7,0,10c-0.1,0.1-0.2,0.1-0.3,0.1c0,0,0,0,0,0L7,4.9
	C6.9,4.9,6.9,4.7,7.1,4.6C7,4.6,7.1,4.6,7.1,4.6z M4.6,7.1C4.6,7,4.8,7,4.9,7c0,0,0,0,0,0l12.1,12.1c0.1,0.1,0.1,0.2,0,0.3
	c0,0,0,0,0,0c-4.1,2.8-9.7,1.6-12.5-2.5C2.5,14.1,2.5,10.1,4.6,7.1z"/>
</svg>
