<?xml version="1.0" encoding="utf-8"?>
<!-- Generator: Adobe Illustrator 22.0.1, SVG Export Plug-In . SVG Version: 6.00 Build 0)  -->
<svg version="1.1" id="Слой_1" xmlns:sketch="http://www.bohemiancoding.com/sketch/ns"
	 xmlns="http://www.w3.org/2000/svg" xmlns:xlink="http://www.w3.org/1999/xlink" x="0px" y="0px" viewBox="0 0 22 5"
	 style="enable-background:new 0 0 22 5;" xml:space="preserve">
<style type="text/css">
	.st0{fill:#FFFFFF;}
</style>
<title>more</title>
<description>Created with Sketch (http://www.bohemiancoding.com/sketch)</description>
<g sketch:type="MSPage">
	<path sketch:type="MSShapeGroup" class="st0" d="M2.5,5C3.9,5,5,3.9,5,2.5S3.9,0,2.5,0S0,1.1,0,2.5S1.1,5,2.5,5L2.5,5z M11,5
		c1.4,0,2.5-1.1,2.5-2.5S12.4,0,11,0S8.5,1.1,8.5,2.5S9.6,5,11,5L11,5z M19.5,5C20.9,5,22,3.9,22,2.5S20.9,0,19.5,0S17,1.1,17,2.5
		S18.1,5,19.5,5L19.5,5z"/>
</g>
</svg>
