<?xml version="1.0" encoding="utf-8"?>
<!-- Generator: Adobe Illustrator 22.0.1, SVG Export Plug-In . SVG Version: 6.00 Build 0)  -->
<svg version="1.1" xmlns="http://www.w3.org/2000/svg" xmlns:xlink="http://www.w3.org/1999/xlink" x="0px" y="0px"
	 viewBox="0 0 95.5 95.5" style="enable-background:new 0 0 95.5 95.5;" xml:space="preserve">
<style type="text/css">
	.st0{fill:#0C0015;}
</style>
<g id="Слой_2">
</g>
<g id="Слой_1">
	<path class="st0" d="M47.8,0.2C21.6,0.2,0.3,21.5,0.3,47.7s21.3,47.5,47.5,47.5s47.5-21.3,47.5-47.5S74,0.2,47.8,0.2z M66,58.2
		c2.1,2.1,2.1,5.6,0,7.7c-1.1,1.1-2.4,1.6-3.8,1.6s-2.8-0.5-3.8-1.6L47.8,55.4L37.3,65.9c-1.1,1.1-2.4,1.6-3.8,1.6
		c-1.4,0-2.8-0.5-3.8-1.6c-2.1-2.1-2.1-5.6,0-7.7l10.4-10.5L29.6,37.2c-2.1-2.1-2.1-5.6,0-7.7s5.6-2.1,7.7,0L47.8,40l10.5-10.5
		c2.1-2.1,5.6-2.1,7.7,0c2.1,2.1,2.1,5.6,0,7.7L55.5,47.7L66,58.2z"/>
</g>
</svg>
