<?xml version="1.0" encoding="utf-8"?>
<!-- Generator: Adobe Illustrator 22.0.1, SVG Export Plug-In . SVG Version: 6.00 Build 0)  -->
<svg version="1.1"
	 id="Слой_1" xmlns:cc="http://creativecommons.org/ns#" xmlns:dc="http://purl.org/dc/elements/1.1/" xmlns:inkscape="http://www.inkscape.org/namespaces/inkscape" xmlns:rdf="http://www.w3.org/1999/02/22-rdf-syntax-ns#" xmlns:sodipodi="http://sodipodi.sourceforge.net/DTD/sodipodi-0.dtd" xmlns:svg="http://www.w3.org/2000/svg"
	 xmlns="http://www.w3.org/2000/svg" xmlns:xlink="http://www.w3.org/1999/xlink" x="0px" y="0px" viewBox="0 0 7.5 7.6"
	 style="enable-background:new 0 0 7.5 7.6;" xml:space="preserve">
<style type="text/css">
	.st0{fill:#ABADB0;}
</style>
<g transform="translate(0,-288.53333)">
	<path class="st0" d="M3.8,288.6c-2,0-3.7,1.7-3.7,3.7s1.7,3.7,3.7,3.7s3.7-1.7,3.7-3.7C7.5,290.3,5.8,288.6,3.8,288.6z M3.8,289.9
		c0.7,0,1.3,0.6,1.3,1.3s-0.6,1.3-1.3,1.3s-1.3-0.6-1.3-1.3S3.1,289.9,3.8,289.9z M2.7,293.1h2.1c0.7,0,1.3,0.6,1.3,1.3
		c-0.6,0.7-1.4,1.1-2.4,1.1c-1,0-1.8-0.4-2.4-1.1C1.4,293.7,2,293.1,2.7,293.1z"/>
</g>
</svg>
