<?xml version="1.0" encoding="utf-8"?>
<!-- Generator: Adobe Illustrator 22.0.1, SVG Export Plug-In . SVG Version: 6.00 Build 0)  -->
<svg version="1.1" id="Слой_1" xmlns:sketch="http://www.bohemiancoding.com/sketch/ns"
	 xmlns="http://www.w3.org/2000/svg" xmlns:xlink="http://www.w3.org/1999/xlink" x="0px" y="0px" viewBox="0 0 100 100"
	 style="enable-background:new 0 0 100 100;" xml:space="preserve">
<style type="text/css">
	.st0{fill:#2E7990;}
</style>
<g>
	<g>
		
			<rect x="47.6" y="16.1" transform="matrix(0.685 -0.7285 0.7285 0.685 -20.6793 52.1695)" class="st0" width="4.7" height="67.8"/>
	</g>
	<g>
		
			<rect x="16.1" y="47.6" transform="matrix(0.685 -0.7286 0.7286 0.685 -20.6828 52.1812)" class="st0" width="67.8" height="4.7"/>
	</g>
</g>
<title>chart_pie_2</title>
<description>Created with Sketch (http://www.bohemiancoding.com/sketch)</description>
<g>
	<path class="st0" d="M50,0C22.4,0,0,22.4,0,50c0,13.3,5.2,25.9,14.6,35.4S36.7,100,50,100s25.9-5.2,35.4-14.6S100,63.3,100,50
		C100,22.4,77.6,0,50,0z M50,95.8C24.8,95.8,4.2,75.2,4.2,50S24.8,4.2,50,4.2S95.8,24.8,95.8,50S75.2,95.8,50,95.8z"/>
</g>
</svg>
