<?xml version="1.0" encoding="utf-8"?>
<!-- Generator: Adobe Illustrator 22.0.1, SVG Export Plug-In . SVG Version: 6.00 Build 0)  -->
<svg version="1.1"
	 id="Слой_1" xmlns:cc="http://creativecommons.org/ns#" xmlns:dc="http://purl.org/dc/elements/1.1/" xmlns:inkscape="http://www.inkscape.org/namespaces/inkscape" xmlns:rdf="http://www.w3.org/1999/02/22-rdf-syntax-ns#" xmlns:sodipodi="http://sodipodi.sourceforge.net/DTD/sodipodi-0.dtd" xmlns:svg="http://www.w3.org/2000/svg"
	 xmlns="http://www.w3.org/2000/svg" xmlns:xlink="http://www.w3.org/1999/xlink" x="0px" y="0px" viewBox="0 0 86.2 86.3"
	 style="enable-background:new 0 0 86.2 86.3;" xml:space="preserve">
<style type="text/css">
	.st0{fill:#673AB7;}
</style>
<g transform="translate(0,-952.36218)">
	<path class="st0" d="M65.3,952.8c-0.7,0.1-1.3,0.4-1.8,0.9l-61.3,61.3c-0.5,0.5-0.8,1.2-0.9,1.9l-1.5,18.7
		c-0.1,1.7,1.1,3.1,2.8,3.2c0.2,0,0.3,0,0.5,0l18.7-1.5c0.7-0.1,1.4-0.4,1.9-0.8L85,975.1c1.2-1.2,1.2-3.1,0-4.2c0,0,0,0,0,0
		l-17.3-17.2C67.1,953,66.2,952.7,65.3,952.8z M65.6,960l13,13l-5.6,5.6l-13-13L65.6,960z M55.8,969.8l4.4,4.4l-46.5,46.5l-4.4-4.4
		L55.8,969.8z M64.4,978.5l4.3,4.4l-46.5,46.4l-4.3-4.3L64.4,978.5z M6.9,1022.4l9.3,9.3l-10.1,0.8L6.9,1022.4z"/>
</g>
</svg>
