<?xml version="1.0" encoding="utf-8"?>
<!-- Generator: Adobe Illustrator 22.0.1, SVG Export Plug-In . SVG Version: 6.00 Build 0)  -->
<svg version="1.1" id="Слой_1" xmlns="http://www.w3.org/2000/svg" xmlns:xlink="http://www.w3.org/1999/xlink" x="0px" y="0px"
	 viewBox="0 0 80.1 60.2" style="enable-background:new 0 0 80.1 60.2;" xml:space="preserve">
<style type="text/css">
	.st0{fill:#2E7990;}
</style>
<g>
	<path class="st0" d="M44.6,30.8L78,1.9C76.8,0.7,75.1,0,73.3,0H6.9C5.1,0,3.5,0.7,2.3,1.8l33.4,29C38.2,33,42,33.1,44.6,30.8z"/>
	<path class="st0" d="M80.1,6.8c0-0.4,0-0.9-0.1-1.3L47.2,33.8c-2,1.8-4.6,2.7-7.1,2.7s-5-0.9-7.1-2.7L0.2,5.4
		C0.1,5.9,0.1,6.3,0.1,6.8v46.4c0,3.7,3,6.8,6.8,6.8h66.4c3.7,0,6.8-3,6.8-6.8V6.8z"/>
</g>
</svg>
