<?xml version="1.0" encoding="utf-8"?>
<!-- Generator: Adobe Illustrator 22.0.1, SVG Export Plug-In . SVG Version: 6.00 Build 0)  -->
<svg version="1.1" id="Слой_1" xmlns="http://www.w3.org/2000/svg" xmlns:xlink="http://www.w3.org/1999/xlink" x="0px" y="0px"
	 viewBox="0 0 85 85" style="enable-background:new 0 0 85 85;" xml:space="preserve">
<style type="text/css">
	.st0{fill:#673AB7;}
</style>
<title>grid</title>
<path class="st0" d="M84.1,5.6c0-2.6-2.1-4.6-4.6-4.6H51.8c-2.6,0-4.6,2.1-4.6,4.6v27.7c0,2.6,2.1,4.6,4.6,4.6h27.7
	c2.6,0,4.6-2.1,4.6-4.6V5.6z M74.9,28.7H56.4V10.3h18.5V28.7z"/>
<path class="st0" d="M1,5.6v27.7C1,35.9,3.1,38,5.6,38h27.7c2.6,0,4.6-2.1,4.6-4.6V5.6C38,3.1,35.9,1,33.3,1H5.6C3.1,1,1,3.1,1,5.6z
	 M10.3,10.3h18.5v18.5H10.3V10.3z"/>
<path class="st0" d="M79.5,47.2H51.8c-2.6,0-4.6,2.1-4.6,4.6v27.7c0,2.6,2.1,4.6,4.6,4.6h27.7c2.6,0,4.6-2.1,4.6-4.6V51.8
	C84.1,49.3,82.1,47.2,79.5,47.2z M74.9,74.9H56.4V56.4h18.5V74.9z"/>
<path class="st0" d="M1,79.5c0,2.6,2.1,4.6,4.6,4.6h27.7c2.6,0,4.6-2.1,4.6-4.6V51.8c0-2.6-2.1-4.6-4.6-4.6H5.6
	c-2.6,0-4.6,2.1-4.6,4.6V79.5z M10.3,56.4h18.5v18.5H10.3V56.4z"/>
</svg>
