<?xml version="1.0" encoding="utf-8"?>
<!-- Generator: Adobe Illustrator 22.0.1, SVG Export Plug-In . SVG Version: 6.00 Build 0)  -->
<svg version="1.1"
	 id="Слой_1" xmlns:cc="http://creativecommons.org/ns#" xmlns:dc="http://purl.org/dc/elements/1.1/" xmlns:inkscape="http://www.inkscape.org/namespaces/inkscape" xmlns:rdf="http://www.w3.org/1999/02/22-rdf-syntax-ns#" xmlns:sodipodi="http://sodipodi.sourceforge.net/DTD/sodipodi-0.dtd" xmlns:svg="http://www.w3.org/2000/svg"
	 xmlns="http://www.w3.org/2000/svg" xmlns:xlink="http://www.w3.org/1999/xlink" x="0px" y="0px" viewBox="0 0 15.1 15.3"
	 style="enable-background:new 0 0 15.1 15.3;" xml:space="preserve">
<style type="text/css">
	.st0{fill:#2E7990;}
</style>
<g>
	<path class="st0" d="M7.5,0.3c-1.7,0-3.2,1.4-3.2,3.2c0,1.7,1.4,3.2,3.2,3.2c0.8,0,1.6-0.3,2.1-0.8C9.5,5.5,9.4,5.2,9.4,4.8
		c0-0.8,0.6-1.5,1.3-1.6C10.6,1.6,9.2,0.3,7.5,0.3z M7.3,1.9h0.5v0.3v0c0.1,0,0.2,0.1,0.3,0.2C8.3,2.5,8.5,2.7,8.5,3H7.9
		c0,0,0-0.1-0.1-0.1c-0.1,0-0.2-0.1-0.3-0.1s-0.2,0-0.3,0.1S7.2,2.9,7.2,3c0,0,0,0,0.1,0.1c0.1,0,0.2,0.1,0.4,0.1
		c0.2,0,0.4,0.1,0.5,0.2c0.2,0.1,0.3,0.3,0.3,0.5c0,0.4-0.3,0.6-0.6,0.7v0v0.3H7.3l0-0.3v0C7.2,4.6,7,4.6,6.9,4.5
		C6.8,4.3,6.6,4.2,6.6,3.9h0.5c0,0,0,0.1,0.1,0.1c0.1,0,0.2,0.1,0.3,0.1c0.2,0,0.4-0.1,0.4-0.2c0,0,0,0-0.1-0.1
		c-0.1,0-0.2-0.1-0.4-0.1C7.3,3.6,7.1,3.6,7,3.5C6.8,3.4,6.6,3.2,6.6,3c0-0.2,0.1-0.4,0.3-0.6C7,2.3,7.2,2.3,7.3,2.2v0V1.9z
		 M11.1,3.7c-0.6,0-1.1,0.5-1.1,1.1c0,0.6,0.5,1.1,1.1,1.1c0,0,0,0,0,0c0.6,0,1.1-0.5,1.1-1.1C12.2,4.2,11.7,3.7,11.1,3.7z
		 M11.4,4.4c0.1,0,0.3,0.1,0.3,0.3c0,0.1,0,0.1-0.1,0.2l-0.4,0.4c-0.1,0.1-0.3,0.1-0.4,0c0,0,0,0,0,0L10.5,5c-0.1-0.1-0.1-0.3,0-0.4
		c0.1-0.1,0.3-0.1,0.4,0L11,4.7l0.2-0.2C11.2,4.4,11.3,4.4,11.4,4.4C11.4,4.4,11.4,4.4,11.4,4.4z M12.6,6.8c-0.1,0-0.2,0-0.2,0.1
		l-1.1,0.6C11,7.5,11,7.8,11.1,7.9l2,3.3c0.1,0.2,0.4,0.2,0.6,0.1l1.1-0.6c0.2-0.1,0.3-0.3,0.2-0.5l-2-3.3
		C12.8,6.8,12.7,6.8,12.6,6.8z M2.7,7.1c-0.1,0-0.3,0.1-0.3,0.2l-2.2,3.7c-0.1,0.2,0,0.4,0.2,0.5l1.1,0.6c0.2,0.1,0.5,0,0.6-0.1
		l2.2-3.7c0.1-0.2,0-0.4-0.2-0.5L3,7.1C2.9,7.1,2.8,7.1,2.7,7.1z M8.5,8.4c-0.3,0-0.6,0-0.9,0C7,8.5,6.5,8.7,6.3,8.9
		c-0.2,0.2-0.5,0.6-0.7,1c-0.1,0.2-0.2,0.4-0.2,0.5s0,0.3,0,0.3c0,0.1,0.1,0.1,0.2,0.1c0.1,0,0.3-0.1,0.5-0.2c0.4-0.2,0.8-0.6,1.1-1
		c0-0.1,0.1-0.1,0.2,0c1.4,0.8,2.9,1.5,4.3,2.4l0.9-0.8l-1.7-2.8c-0.3,0.1-0.8,0.1-1.4,0C9.2,8.5,8.8,8.4,8.5,8.4z M4.5,8.8L2.6,12
		c2.4,2.4,4.2,2.9,4.9,3.1c0.3,0.1,0.7,0,0.9-0.3c0-0.1,0.1-0.2,0.1-0.2c0.3,0.1,0.8,0,1-0.3c0.1-0.1,0.1-0.2,0.1-0.3
		c0.3,0,0.6-0.1,0.8-0.4c0-0.1,0.1-0.2,0.1-0.2c0.3,0.1,0.8,0,1-0.3c0.1-0.1,0.1-0.2,0.1-0.3l-0.2-0.1c-1.2-0.8-2.7-1.5-4-2.2
		c-0.3,0.3-0.6,0.7-1,0.9c-0.2,0.1-0.4,0.2-0.7,0.2c-0.1,0-0.2,0-0.4-0.1C5,11.2,4.9,11,4.9,11c-0.1-0.2,0-0.3,0-0.4
		c0-0.1,0-0.2,0.1-0.3C5,10.1,5,9.8,5.2,9.6c0.1-0.3,0.3-0.5,0.4-0.7L4.5,8.8z M13.9,10.1c0.2,0,0.3,0.1,0.3,0.3
		c0,0.1-0.1,0.3-0.3,0.3c0,0,0,0,0,0c-0.2,0-0.3-0.1-0.3-0.3c0,0,0,0,0,0C13.6,10.3,13.7,10.1,13.9,10.1z M1.3,10.7
		c0.2,0,0.3,0.1,0.3,0.3c0,0.1-0.1,0.3-0.3,0.3C1.1,11.3,1,11.2,1,11C1,10.9,1.1,10.7,1.3,10.7z"/>
</g>
</svg>
