<svg width="14" height="14" viewBox="0 0 14 14" fill="none" xmlns="http://www.w3.org/2000/svg">
<path d="M7.06299 8.25C10.6872 8.25 13.6255 9.62113 13.6255 11.3125V13.5H0.500488V11.3125C0.500488 9.62113 3.43874 8.25 7.06299 8.25ZM12.7505 11.3125C12.7505 10.105 10.2042 9.125 7.06299 9.125C3.92174 9.125 1.37549 10.105 1.37549 11.3125V12.625H12.7505V11.3125ZM7.06299 0.375C7.87521 0.375 8.65417 0.697655 9.2285 1.27199C9.80283 1.84632 10.1255 2.62527 10.1255 3.4375C10.1255 4.24973 9.80283 5.02868 9.2285 5.60301C8.65417 6.17734 7.87521 6.5 7.06299 6.5C6.25076 6.5 5.4718 6.17734 4.89747 5.60301C4.32314 5.02868 4.00049 4.24973 4.00049 3.4375C4.00049 2.62527 4.32314 1.84632 4.89747 1.27199C5.4718 0.697655 6.25076 0.375 7.06299 0.375ZM7.06299 1.25C6.48283 1.25 5.92643 1.48047 5.51619 1.8907C5.10596 2.30094 4.87549 2.85734 4.87549 3.4375C4.87549 4.01766 5.10596 4.57406 5.51619 4.9843C5.92643 5.39453 6.48283 5.625 7.06299 5.625C7.64315 5.625 8.19955 5.39453 8.60978 4.9843C9.02002 4.57406 9.25049 4.01766 9.25049 3.4375C9.25049 2.85734 9.02002 2.30094 8.60978 1.8907C8.19955 1.48047 7.64315 1.25 7.06299 1.25Z" fill="white"/>
</svg>
