<?xml version="1.0" encoding="utf-8"?>
<!-- Generator: Adobe Illustrator 22.0.1, SVG Export Plug-In . SVG Version: 6.00 Build 0)  -->
<svg version="1.1" id="Слой_1" xmlns="http://www.w3.org/2000/svg" xmlns:xlink="http://www.w3.org/1999/xlink" x="0px" y="0px"
	 viewBox="0 0 512 512.7" style="enable-background:new 0 0 512 512.7;" xml:space="preserve">
<style type="text/css">
	.st0{fill:#673AB7;}
</style>
<g>
	<path class="st0" d="M499.9,306.2h-33.7v-69l21.9,9.4c4.3,1.8,9.2-0.2,11-4.4c0.4-1,0.7-2.2,0.7-3.3c0-30.3-14.4-58.8-38.9-76.7
		l-4.8-31.2c-4.6-29.4-23.7-54.5-50.9-66.8L381.4,8.3c-1.3-3.1-4.4-5.1-7.7-5.1h-75.8V20h16.8v7.4L306.6,60
		c-1.1,4.5,1.6,9.1,6.1,10.2c0.7,0.2,1.4,0.3,2,0.3h8.4v16.8c0,4.4,3.4,8.1,7.8,8.4l-10.8,27.1c-1.6,4-2.6,8.1-2.9,12.4l-24.6,29.5
		l-77.1,35.6l-6.8-2.7l-42.2-21.1l2.3-6.3l43,9.6c2.5,0.6,5.2-0.1,7.2-1.7l50.5-42.1c0.2-0.2,0.4-0.3,0.6-0.5l21-21
		c10.3-10.3,10.3-26.9,0-37.2c-10.3-10.3-26.9-10.3-37.2,0l-6.7,6.7v-4.9c0-4.6-3.8-8.4-8.4-8.4s-8.4,3.8-8.4,8.4v21L205,119.1
		l-37.1-24.8c2.4-1.6,3.8-4.2,3.8-7V70.5h8.4c4.6,0,8.4-3.8,8.4-8.4c0-0.7-0.1-1.4-0.3-2l-8.2-32.7V20h16.8V3.2h-75.8
		c-3.4,0-6.4,2-7.7,5.1l-24,56.1l-25,12.5c-16.8,8.4-25.9,26.9-22.5,45.4l6,32C19.9,173.4,3.3,205,3.3,238.8c0,4.6,3.8,8.4,8.4,8.4
		c1.3,0,2.6-0.3,3.8-0.9l45.3-22.7l0.8,4.5l-20.6,25.7c-8.4,10.5-11.3,24.4-7.7,37.4l19.5,71.4L31,384.4c-1.4,1.4-2.2,3.1-2.4,5
		l-8.4,75.8c0,0.3-0.1,0.6,0,0.9h0v33.7c0,4.6,3.8,8.4,8.4,8.4h143.1c4.6,0,8.4-3.8,8.4-8.4c0-3-1.6-5.8-4.2-7.3l-53.4-30.5
		l23.7-94.8c0.2-0.7,0.3-1.4,0.3-2V231.9l0.8-2.2l37.9,16.8c0,0,0.1,0,0.2,0.1c0,0,0.1,0,0.1,0.1l26.1,10.4c3.2,1.3,6.6,1.9,10,1.9
		c8.3,0,16.1-3.8,21.4-10.2l83.7-35.9c1-0.4,1.9-1,2.6-1.8l8.6-8.6l10.6,29.1L340,364.6c-0.1,0.9,0,1.7,0.2,2.6l23.7,94.8
		l-53.4,30.5c-4,2.3-5.4,7.4-3.1,11.5c1.5,2.6,4.3,4.2,7.3,4.2h151.5c4.6,0,8.4-3.8,8.4-8.4c0-0.7-0.1-1.4-0.3-2l-8.2-32.7v-49.5
		h33.7c4.6,0,8.4-3.8,8.4-8.4v-92.6C508.3,309.9,504.6,306.2,499.9,306.2z M432.6,306.2v-16.8h16.8v16.8H432.6z M362.7,222l-27.3-75
		c-2.1-5.8-2-12.2,0.3-18l9.3-23.3l19.6,4.9c-1.7,37.8,14.8,74.2,44.4,97.9l1.2,13.5H362.7z M482,225.6l-15.7-6.7v-22.1
		c0-0.4,0-0.9-0.1-1.3l-1-6.5C473.9,199.5,479.7,212.1,482,225.6z M439.6,133.4l9.8,64v75.1h-17.6l-7.7-84.9c0-0.2,0-0.4-0.1-0.6
		l-8.4-50.5l-16.6,2.8l7.2,43.3c-18-20.7-26.8-47.8-24.4-75.2L401.6,81C421.9,91.4,436,110.9,439.6,133.4L439.6,133.4z M325.5,53.7
		l5.8-23.2c0.2-0.7,0.3-1.4,0.3-2V20h36.5l21.1,49.3l-19,25.3l-13.8-3.5l14.7-14.7c3.3-3.3,3.3-8.6,0-11.9c-3.3-3.3-8.6-3.3-11.9,0
		c0,0,0,0,0,0l-14.4,14.4H340V62.1c0-4.6-3.8-8.4-8.4-8.4H325.5z M143.3,164.8l-16.6-19.9c2.8-11.2,4-22.7,3.4-34.2l19.6-4.9
		l9.3,23.3c2.3,5.8,2.4,12.2,0.3,18l-7.9,21.8L143.3,164.8z M266,89.1c3.7-3.7,9.7-3.7,13.3,0c3.7,3.7,3.7,9.7,0,13.3l-15.1,15.1
		l-13.3-13.3L266,89.1z M210.4,136.2l27.8-20.9l13.6,13.6l-40.2,33.5l-36.9-8.2l0.5-1.4c3.5-9.7,3.4-20.4-0.5-30l-2-5l28,18.6
		C203.6,138.4,207.5,138.3,210.4,136.2z M126.7,20h36.5v8.4c0,0.7,0.1,1.4,0.3,2l5.8,23.2h-6.1c-4.6,0-8.4,3.8-8.4,8.4v16.8h-4.9
		l-14.4-14.4c-3.3-3.3-8.6-3.3-11.9,0c-3.3,3.3-3.3,8.6,0,11.9l14.7,14.7l-13.8,3.5l-19-25.3L126.7,20z M71.9,91.9l21.5-10.8
		l19.6,26.2c0.6,6.9,0.5,13.8-0.3,20.7l-10.4-12.4l-12.9,10.8l42.1,50.5c0.7,0.9,1.7,1.6,2.7,2.1l59.8,29.9l-9.5,18.9l-67-29.8
		l-54.7-54.7l-4.6-24.3C56.3,108.1,61.8,97,71.9,91.9z M21.3,224.6c3.9-23.4,17.4-44.1,37.1-57.2l2.8-1.8l22.3,22.3
		c-7.6,7.5-16.3,13.8-25.9,18.6L21.3,224.6z M37,491.3v-16.8h5.9l25.3,16.8H37z M82.7,423.2l4.8,43.4V484l-30.6-20.4L82.7,423.2z
		 M104.3,491.3v-16.8h6.2l29.5,16.8H104.3z M106.2,457.7h-2.7l-6.2-56.1c0-0.4-0.1-0.7-0.1-1.1l14.3-22.5c0.9-1.4,1.3-2.9,1.3-4.5
		v-75.8H95.9v73.3l-55.1,86.6H38l7.1-63.5L68.2,371c2.1-2.1,3-5.3,2.2-8.2l-20.7-76.1c-2.1-7.8-0.4-16.1,4.6-22.4l20.4-25.6h54.9
		v125.2L106.2,457.7z M77.7,222l-1.3-6.9c6.9-4.4,13.3-9.6,19.1-15.4l11.4,11.4c0.7,0.7,1.6,1.3,2.5,1.7l20.6,9.1H77.7z
		 M230.8,236.5c-2.4,4.8-8.1,6.9-13.1,5l-17.6-7l9.3-18.6l16,6.4c5.3,2.1,7.9,8.1,5.8,13.4C231,236,230.9,236.2,230.8,236.5
		L230.8,236.5z M318.4,198.1l-69.9,30c-1.1-7.7-5.4-14.6-12-18.9l65-30c1.1-0.5,2.1-1.3,2.9-2.3l16.7-20.1l10.3,28.2L318.4,198.1z
		 M364.7,238.8h47.1l3.9,42.5v24.9h-33.7c-4.6,0-8.4,3.8-8.4,8.4v92.6c0,4.6,3.8,8.4,8.4,8.4h12.1l-10.2,42.1h-3.6l-23.3-93.4
		L364.7,238.8z M398.9,467.1l10.3-42.4l20.7,38.6L398.9,484V467.1z M346.4,491.3l29.5-16.8h6.2v16.8H346.4z M418.3,491.3l25.3-16.8
		h7.7l4.2,16.8H418.3z M449.4,457.7H446l-22.6-42.1h26V457.7z M491.5,398.8h-101v-42.1h42.1v25.3h16.8v-25.3h42.1V398.8z
		 M491.5,339.8h-101V323h101V339.8z"/>
</g>
</svg>
