<?xml version="1.0" encoding="utf-8"?>
<!-- Generator: Adobe Illustrator 22.0.1, SVG Export Plug-In . SVG Version: 6.00 Build 0)  -->
<svg version="1.1" id="Слой_1" xmlns="http://www.w3.org/2000/svg" xmlns:xlink="http://www.w3.org/1999/xlink" x="0px" y="0px"
	 viewBox="0 0 862.5 196.7" style="enable-background:new 0 0 862.5 196.7;" xml:space="preserve">
<style type="text/css">
	.st0{fill:#6B6B6B;}
	.st1{fill:none;}
	.st2{enable-background:new    ;}
</style>
<g>
	<path class="st0" d="M191.1,117.5h-12.8V91.3l8.3,3.6c1.6,0.7,3.5-0.1,4.2-1.7c0.2-0.4,0.3-0.8,0.3-1.3c0-11.5-5.5-22.4-14.8-29.2
		l-1.8-11.9c-1.7-11.2-9-20.7-19.4-25.4L146,4.1c-0.5-1.2-1.7-1.9-2.9-1.9h-28.8v6.4h6.4v2.8l-3.1,12.4c-0.4,1.7,0.6,3.5,2.3,3.9
		c0.3,0.1,0.5,0.1,0.8,0.1h3.2v6.4c0,1.7,1.3,3.1,3,3.2l-4.1,10.3c-0.6,1.5-1,3.1-1.1,4.7l-9.4,11.2L83,77.3l-2.6-1l-16.1-8l0.9-2.4
		l16.4,3.7c1,0.2,2,0,2.7-0.6l19.2-16c0.1-0.1,0.2-0.1,0.2-0.2l8-8c3.9-3.9,3.9-10.2,0-14.1s-10.2-3.9-14.1,0L95,33v-1.9
		c0-1.7-1.4-3.2-3.2-3.2s-3.2,1.4-3.2,3.2v8L79,46.4L64.9,37c0.9-0.6,1.4-1.6,1.4-2.7v-6.4h3.2c1.7,0,3.2-1.4,3.2-3.2
		c0-0.3,0-0.5-0.1-0.8l-3.1-12.4V8.7h6.4V2.3H47c-1.3,0-2.4,0.8-2.9,1.9L35,25.6l-9.5,4.8c-6.4,3.2-9.9,10.2-8.6,17.3l2.3,12.2
		C8.6,67,2.2,79,2.2,91.9c0,1.7,1.4,3.2,3.2,3.2c0.5,0,1-0.1,1.4-0.3L24,86.2l0.3,1.7l-7.8,9.8c-3.2,4-4.3,9.3-2.9,14.2l7.4,27.2
		l-8.3,8.3c-0.5,0.5-0.8,1.2-0.9,1.9L8.7,178c0,0.1,0,0.2,0,0.3l0,0v12.8c0,1.7,1.4,3.2,3.2,3.2h54.4c1.7,0,3.2-1.4,3.2-3.2
		c0-1.1-0.6-2.2-1.6-2.8l-20.3-11.6l9-36.1c0.1-0.3,0.1-0.5,0.1-0.8V89.3l0.3-0.8l14.4,6.4c0,0,0,0,0.1,0l0,0l9.9,4
		c1.2,0.5,2.5,0.7,3.8,0.7c3.2,0,6.1-1.4,8.1-3.9L125.1,82c0.4-0.2,0.7-0.4,1-0.7l3.3-3.3l4,11.1l-3.2,50.6c0,0.3,0,0.6,0.1,1
		l9,36.1L119,188.4c-1.5,0.9-2.1,2.8-1.2,4.4c0.6,1,1.6,1.6,2.8,1.6h57.6c1.7,0,3.2-1.4,3.2-3.2c0-0.3,0-0.5-0.1-0.8l-3.1-12.4
		v-18.8H191c1.7,0,3.2-1.4,3.2-3.2v-35.2C194.3,118.9,192.9,117.5,191.1,117.5z M165.5,117.5v-6.4h6.4v6.4H165.5z M138.9,85.5
		L128.6,57c-0.8-2.2-0.8-4.6,0.1-6.8l3.5-8.9l7.5,1.9c-0.6,14.4,5.6,28.2,16.9,37.2l0.5,5.1C157.1,85.5,138.9,85.5,138.9,85.5z
		 M184.3,86.9l-6-2.5V76c0-0.2,0-0.3,0-0.5l-0.4-2.5C181.2,77,183.4,81.7,184.3,86.9z M168.2,51.8l3.7,24.3v28.6h-6.7l-2.9-32.3
		c0-0.1,0-0.2,0-0.2L159.1,53l-6.3,1.1l2.7,16.5c-6.8-7.9-10.2-18.2-9.3-28.6l7.5-10C161.5,35.8,166.8,43.3,168.2,51.8L168.2,51.8z
		 M124.8,21.5l2.2-8.8c0.1-0.3,0.1-0.5,0.1-0.8V8.7H141l8,18.8l-7.2,9.6l-5.2-1.3l5.6-5.6c1.3-1.3,1.3-3.3,0-4.5
		c-1.3-1.3-3.3-1.3-4.5,0l0,0l-5.5,5.5h-1.8v-6.4c0-1.7-1.4-3.2-3.2-3.2C127.1,21.5,124.8,21.5,124.8,21.5z M55.5,63.8l-6.3-7.6
		c1.1-4.3,1.5-8.6,1.3-13l7.5-1.9l3.5,8.9c0.9,2.2,0.9,4.6,0.1,6.8l-3,8.3L55.5,63.8z M102.2,35c1.4-1.4,3.7-1.4,5.1,0
		s1.4,3.7,0,5.1l-5.7,5.7l-5.1-5.1L102.2,35z M81,52.9L91.6,45l5.2,5.2L81.5,62.8l-14-3.1l0.2-0.5c1.3-3.7,1.3-7.8-0.2-11.4
		l-0.8-1.9L77.3,53C78.4,53.7,79.9,53.7,81,52.9z M49.2,8.7h13.9v3.2c0,0.3,0,0.5,0.1,0.8l2.2,8.8h-2.3c-1.7,0-3.2,1.4-3.2,3.2V31
		H58l-5.5-5.5c-1.3-1.3-3.3-1.3-4.5,0s-1.3,3.3,0,4.5l5.6,5.6L48.3,37l-7.2-9.6L49.2,8.7z M28.3,36l8.2-4.1l7.5,10
		c0.2,2.6,0.2,5.2-0.1,7.9l-4-4.7L35,49.2l16,19.2c0.3,0.3,0.6,0.6,1,0.8l22.7,11.4l-3.6,7.2L45.7,76.4L24.9,55.6l-1.7-9.2
		C22.4,42.2,24.5,38,28.3,36z M9.1,86.5c1.5-8.9,6.6-16.8,14.1-21.8l1.1-0.7l8.5,8.5c-2.9,2.9-6.2,5.2-9.9,7.1L9.1,86.5z
		 M15.1,187.9v-6.4h2.2l9.6,6.4H15.1z M32.4,162l1.8,16.5v6.6l-11.6-7.8L32.4,162z M40.7,187.9v-6.4H43l11.2,6.4H40.7z M41.4,175.2
		h-1L38,153.8c0-0.2,0-0.3,0-0.4l5.4-8.6c0.3-0.5,0.5-1.1,0.5-1.7v-28.8h-6.4v27.9l-21,32.9h-1.1l2.7-24.2l8.8-8.8
		c0.8-0.8,1.1-2,0.8-3.1l-7.9-28.9c-0.8-3-0.2-6.1,1.7-8.5l7.8-9.7h20.9v47.6L41.4,175.2z M30.5,85.5L30,82.9
		c2.6-1.7,5.1-3.7,7.3-5.9l4.3,4.3c0.3,0.3,0.6,0.5,1,0.6l7.8,3.5L30.5,85.5L30.5,85.5z M88.8,91c-0.9,1.8-3.1,2.6-5,1.9l-6.7-2.7
		l3.5-7.1l6.1,2.4c2,0.8,3,3.1,2.2,5.1C88.8,90.8,88.8,90.9,88.8,91L88.8,91z M122.1,76.4L95.5,87.8c-0.4-2.9-2.1-5.6-4.6-7.2
		l24.7-11.4c0.4-0.2,0.8-0.5,1.1-0.9l6.4-7.6l3.9,10.7L122.1,76.4z M139.7,91.9h17.9l1.5,16.2v9.5h-12.8c-1.7,0-3.2,1.4-3.2,3.2V156
		c0,1.7,1.4,3.2,3.2,3.2h4.6l-3.9,16h-1.4l-8.9-35.5L139.7,91.9z M152.7,178.7l3.9-16.1l7.9,14.7l-11.8,7.9L152.7,178.7L152.7,178.7
		z M132.7,187.9l11.2-6.4h2.4v6.4H132.7z M160.1,187.9l9.6-6.4h2.9l1.6,6.4H160.1z M171.9,175.2h-1.3l-8.6-16h9.9L171.9,175.2
		L171.9,175.2z M187.9,152.8h-38.4v-16h16v9.6h6.4v-9.6h16V152.8z M187.9,130.3h-38.4v-6.4h38.4V130.3z"/>
</g>
<rect x="207" y="50.2" class="st1" width="326" height="50.1"/>
<g class="st2">
	<path class="st0" d="M286.8,80.1c0,16.6-12.9,25-38.8,25c-4.2,0-10.9-0.1-20.1-0.4c0.8-5.4,2.4-18.7,4.9-39.9
		c1.5-14.2,2.3-26.3,2.5-36.4h9.6c1.7,0,4.6-0.1,8.9-0.2c4.3-0.1,7.5-0.2,9.8-0.2c7,0,12.6,1.3,16.8,4s6.2,6.5,6.2,11.7
		c0,4.4-1.4,8.3-4.1,11.7s-6.2,5.7-10.5,6.7l0,0.9c3.9,0.7,7.4,2.4,10.3,5.3C285.3,71.2,286.8,75.1,286.8,80.1z M271.8,80.9
		c0-6.8-6.1-10.2-18.3-10.2c-2.5,0-4.9,0.1-7.2,0.3c-0.9,8.2-1.5,15.7-1.9,22.6c1.6,0.3,3.7,0.5,6.2,0.5c7.6,0,13.1-1.1,16.3-3.2
		S271.8,85.4,271.8,80.9z M271.1,48c0-5.9-3.8-8.9-11.5-8.9c-3.8,0-7.4,0.3-10.7,0.9c0,1.6-0.5,8.4-1.6,20.3c1.8,0.1,3.4,0.1,5,0.1
		C264.8,60.4,271.1,56.3,271.1,48z"/>
	<path class="st0" d="M316.1,47.9c0,1.1-0.4,5.1-1.3,12s-1.6,12.6-2.1,17c-0.9,8.1-1.6,17.4-2.2,27.8l-14.9,0.6
		c0.8-5.1,2-14.6,3.7-28.4c0.8-7.4,1.2-14.4,1.2-20.8c0-2.6-0.1-4.8-0.2-6.5L316.1,47.9z M320.6,30.2c0,3-1.1,5.7-3.2,7.8
		s-4.7,3.3-7.8,3.3c-2.4,0-4.2-0.7-5.5-2.2s-1.9-3.3-1.9-5.5c0-3.1,1.1-5.7,3.2-7.8s4.7-3.2,7.8-3.2
		C318.1,22.7,320.6,25.2,320.6,30.2z"/>
	<path class="st0" d="M369,49l-2.1,10.9c-2.3,2.1-7.2,7.9-14.9,17.3c-7.7,9.4-11.5,14.8-11.5,16.3v0.9c8.4,0,16.7-0.4,25-1.1
		l-1.5,11.4h-42.1l2-10.9c2.1-1.8,7.2-7.5,15.3-17.1s12.2-15.1,12.2-16.5v-0.9c-8.8,0-16.9,0.3-24.3,0.9l1.5-11.2
		C328.6,49,369,49,369,49z"/>
	<path class="st0" d="M460.2,28.4c-1.3,11.1-1.9,25-1.9,41.7c0,11,0.3,22.5,0.9,34.6h-16.7c0-16.2,1.2-37.3,3.5-63.4h-0.9
		c-0.6,2.5-1.8,6.4-3.8,12s-5.7,14.8-11.5,27.9c-5.7,13.1-8.8,20.9-9,23.5h-12.7c0-3.1-1.5-11.2-4.4-24.4s-4.7-21.7-5.3-25.6
		c-0.6-3.9-1.1-8.4-1.6-13.4h-0.9c-0.5,4.5-2.1,15.7-4.8,33.6s-4,27.9-4,29.8H372c0-1.1,2.5-13.2,7.6-36.3s7.8-36.5,8.3-40H409
		c0,5.4,1.4,15,4.3,29s4.3,23.5,4.3,28.6h0.9c0.4-3.8,3.8-13.5,10.2-29c6.4-15.5,9.8-25.1,10.1-28.6
		C438.8,28.4,460.2,28.4,460.2,28.4z"/>
	<path class="st0" d="M524.2,46.4c-3.1,21.2-4.7,35.8-4.7,43.9c0,4.1,0.3,8.7,1,13.8l-14.4,1.6c-0.2-3.2-0.4-7-0.4-11.3h-0.9
		c-4.3,7.9-10.8,11.9-19.3,11.9c-4.9,0-8.6-1.8-11.1-5.5s-3.8-8.7-3.8-15.1c0-9.2,3.2-17.5,9.7-24.9c6.4-7.4,16.5-11.3,30.1-11.6
		l2.6-1.8L524.2,46.4z M509.2,58.4c-8.2,0.1-14.2,2.5-18,7.1s-5.7,11-5.7,19c0,7.2,2.3,10.8,6.8,10.8c3.5,0,6.7-2.6,9.7-7.7
		c2.9-5.1,4.8-10,5.6-14.7C508.3,68.3,508.9,63.4,509.2,58.4z"/>
	<path class="st0" d="M568.4,49.6l-1.6,11.7c-5.5-0.2-10-0.4-13.5-0.4c-1.6,10.6-2.5,18.5-2.5,23.7c0,3.9,0.4,6.6,1.3,8
		c0.9,1.4,2.4,2.2,4.6,2.2c3.4,0,7.1-1.2,11-3.6l-2,10.7c-3.5,2.8-7.9,4.2-13.1,4.2c-5.5,0-9.5-1.4-11.8-4.1s-3.5-7.3-3.5-13.7
		c0-4.8,1-13.8,2.9-27.2c-1.9,0-4.6,0.1-8,0.4l1.6-11.5c3,0.2,5.7,0.4,8.1,0.4c0.4-2.7,1.2-8.2,2.5-16.3l13-1.7
		c-0.7,3.7-1.6,9.7-2.8,18C557.8,50,562.4,49.9,568.4,49.6z"/>
	<path class="st0" d="M627.3,61.2c0,11.6-12.5,17.7-37.6,18.2c0,5.2,1,9,2.9,11.6s5.3,3.8,10,3.8c6.3,0,12.9-2,20.1-6l-1.8,11.6
		c-5.8,4.1-13.2,6.1-22.1,6.1c-8,0-13.9-2.4-17.7-7.2c-3.8-4.8-5.7-11.1-5.7-19c0-10.2,3.2-18.4,9.6-24.5s14-9.2,22.7-9.2
		c6.1,0,10.8,1.3,14.2,3.8C625.5,52.8,627.3,56.4,627.3,61.2z M614.2,62.3c0-3.8-2.9-5.7-8.7-5.7c-3.3,0-6.5,1.2-9.4,3.7
		c-3,2.4-4.9,5.9-5.8,10.5C606.2,70.5,614.2,67.7,614.2,62.3z"/>
</g>
<rect x="207" y="105.8" class="st1" width="322" height="23.4"/>
<g class="st2">
	<path class="st0" d="M248.1,126.8c0,1.4-0.2,4.2-0.6,8.5s-0.6,7.5-0.6,9.5l-4.5,0.3c0-0.8,0.3-3.3,0.8-7.5s0.8-7.4,0.8-9.5
		s-0.4-3.5-1.1-4.3c-0.7-0.8-1.9-1.2-3.5-1.2c-1.9,0-3.8,1.3-5.5,3.8c-1.8,2.5-2.8,5.3-3.1,8.3c-0.4,3.9-0.7,7.3-0.9,10.2l-4.3,0.3
		c1.2-9.1,1.8-15.3,1.8-18.5c0-1.8-0.1-4.1-0.4-6.8l4.5-0.7c0.1,1.5,0.2,3.6,0.2,6.1h0.2c2.3-4.3,5.4-6.4,9.4-6.4
		C245.8,118.9,248.1,121.5,248.1,126.8z"/>
	<path class="st0" d="M277.6,130.1c0,4.2-1.3,7.9-3.8,11s-5.9,4.7-10.1,4.7c-2.8,0-5.1-1.1-7.1-3.3s-3-5.1-3-8.6
		c0-4.2,1.3-7.8,3.8-10.8c2.5-3,5.9-4.5,10.2-4.5c2.8,0,5.2,1,7.1,3.1C276.6,123.8,277.6,126.6,277.6,130.1z M273.1,130.9
		c0-2.5-0.6-4.6-1.7-6.3c-1.1-1.7-2.7-2.6-4.8-2.6c-2.6,0-4.7,1.2-6.3,3.7c-1.6,2.5-2.3,5.1-2.3,8c0,2.5,0.6,4.6,1.7,6.3
		c1.1,1.8,2.8,2.6,4.9,2.6c2.6,0,4.7-1.2,6.2-3.7C272.3,136.4,273.1,133.7,273.1,130.9z"/>
	<path class="st0" d="M305.6,119.2c-1.2,9.8-1.8,16.3-1.8,19.5c0,1.8,0.1,3.8,0.4,6l-4.5,0.7c-0.1-1.5-0.2-3.6-0.2-6.1h-0.2
		c-2.3,4.3-5.4,6.4-9.4,6.4c-4.6,0-6.9-2.6-6.9-7.8c0-1.4,0.2-4.2,0.6-8.5c0.4-4.3,0.6-7.4,0.6-9.5l4.6-0.5c0,0.8-0.3,3.3-0.8,7.6
		c-0.5,4.3-0.8,7.5-0.8,9.7c0,2.1,0.4,3.5,1.1,4.3s1.9,1.2,3.5,1.2c1.9,0,3.8-1.3,5.5-3.8s2.8-5.3,3.1-8.3c0.4-4.3,0.6-7.7,0.6-10.1
		L305.6,119.2z"/>
	<path class="st0" d="M329.8,119.6l-1.1,4.1c-1.7-0.5-3.4-0.8-5.2-0.8c-2.6,0-4.8,1-6.3,3.1c-1.6,2-2.4,4.5-2.4,7.2
		c0,2.5,0.6,4.6,1.7,6.2c1.1,1.6,2.8,2.4,4.9,2.4c2.3,0,4.7-0.8,7.3-2.4l-0.7,3.9c-1.8,1.5-4.3,2.3-7.5,2.3c-3.4,0-6-1.2-7.8-3.6
		c-1.6-2.1-2.4-4.8-2.4-8.1c0-4,1.3-7.5,3.9-10.4s6.2-4.3,10.7-4.3C327,119.1,328.6,119.3,329.8,119.6z"/>
	<path class="st0" d="M356.8,119.6c0,0.6-1.2,2.1-3.7,4.6s-4.4,4.3-5.8,5.3v0.3c1.8,2.2,3.5,5,4.9,8.4c1.5,3.4,2.2,5.6,2.2,6.6
		l-4.8,0.3c0-0.8-0.5-2.5-1.4-5.1s-2.2-5.2-3.8-7.5c-1.4,1.3-2.8,3-4.2,5.2c-1.4,2.2-2.2,4.6-2.4,7.2l-4.5,0.3
		c0.3-1.7,0.8-5.8,1.6-12.3c0.4-3.5,0.6-6.8,0.6-9.7c0-1.2,0-2.3-0.1-3.1l4.8-0.7c0,0.9-0.2,3.1-0.6,6.5c-0.4,3.4-0.8,6.9-1.2,10.3
		h0.3c0.7-1.7,3-4.7,6.9-9c3.9-4.3,5.9-6.8,5.9-7.7L356.8,119.6z"/>
	<path class="st0" d="M393.4,126.8c0,1.4-0.2,4.2-0.6,8.5s-0.6,7.5-0.6,9.5l-4.5,0.3c0-0.8,0.3-3.3,0.8-7.5s0.8-7.4,0.8-9.5
		s-0.4-3.5-1.1-4.3s-1.9-1.2-3.5-1.2c-1.9,0-3.8,1.3-5.5,3.8c-1.8,2.5-2.8,5.3-3.1,8.3c-0.4,3.9-0.7,7.3-0.9,10.2l-4.3,0.3
		c1.2-9.1,1.8-15.3,1.8-18.5c0-1.8-0.1-4.1-0.4-6.8l4.5-0.7c0.1,1.5,0.2,3.6,0.2,6.1h0.2c2.3-4.3,5.4-6.4,9.4-6.4
		C391.1,118.9,393.4,121.5,393.4,126.8z"/>
	<path class="st0" d="M420.1,118.6c-1.6,8.9-2.4,15.4-2.4,19.5c0,1.8,0.2,4,0.5,6.5l-4.5,0.7c-0.1-1.6-0.2-3.5-0.2-5.9h-0.2
		c-2.2,4.1-5.2,6.1-8.8,6.1c-2.1,0-3.7-0.8-4.9-2.5c-1.1-1.7-1.7-3.9-1.7-6.6c0-4.4,1.5-8.2,4.6-11.5c3.1-3.3,7.5-4.9,13.3-5
		l1.2-0.8L420.1,118.6z M415.3,122.8c-4.5,0.1-7.7,1.3-9.8,3.7c-2,2.3-3.1,5.5-3.1,9.3c0,4,1.3,6,4,6c1.9,0,3.6-1.3,5.1-4
		c1.6-2.7,2.5-5.1,2.9-7.3C414.9,128.3,415.2,125.7,415.3,122.8z"/>
	<path class="st0" d="M449.1,129.1c0,4.8-1.2,8.7-3.6,11.8s-5.7,4.6-9.8,4.6c-2.8,0-4.8-0.6-6.1-1.7h-0.2c-0.5,4.9-0.9,9.2-1.2,12.8
		l-4.7,0.3c2.2-16.2,3.3-26.6,3.3-31c0-1.7-0.1-3.7-0.4-6l4.5-0.7c0.1,1.5,0.2,3.5,0.2,6.1h0.2c2.3-4.3,5.5-6.4,9.5-6.4
		c2.5,0,4.5,0.9,6.1,2.8C448.3,123.5,449.1,126,449.1,129.1z M444.6,130.7c0-5.4-1.9-8.1-5.7-8.1c-1.9,0-3.8,1.2-5.6,3.6
		c-1.8,2.4-2.9,5.2-3.2,8.4l-0.5,6c1.7,1,3.4,1.5,5,1.5c3.4,0,5.9-1.1,7.5-3.2S444.6,134.1,444.6,130.7z"/>
	<path class="st0" d="M453.9,145.1c1.2-9.1,1.8-15.2,1.8-18.5c0-1.8-0.1-4.1-0.4-6.8l4.5-0.7c0.1,1.3,0.2,3.3,0.2,6.1h0.2
		c2.5-4.3,5.6-6.4,9.1-6.4c3.7,0,5.5,2.1,5.5,6.4h0.2c2.5-4.3,5.6-6.4,9.1-6.4c2.2,0,3.7,0.6,4.5,1.9s1.2,3.1,1.2,5.6
		c0,1.7-0.2,4.6-0.6,8.8s-0.6,7.4-0.6,9.5l-4.6,0.3c0-0.7,0.3-3.2,0.8-7.5s0.8-7.2,0.8-8.7c0-2.4-0.3-4-0.8-4.9s-1.3-1.3-2.4-1.3
		c-2,0-3.9,1.3-5.6,3.9c-1.7,2.6-2.6,5.3-2.9,8.1c-0.4,3.8-0.6,7.2-0.6,10.2l-4.6,0.3c0-0.8,0.3-3.3,0.9-7.7s0.9-7.2,0.9-8.5
		c0-2.4-0.3-4.1-0.8-5s-1.3-1.3-2.3-1.3c-2,0-3.8,1.3-5.5,3.9c-1.7,2.6-2.7,5.3-3,8.1c-0.4,4.3-0.7,7.7-0.9,10.2L453.9,145.1z"/>
	<path class="st0" d="M517.9,119.3c0,1.5-0.3,5.3-1,11.7c-0.6,5.8-1,10.4-1.1,13.9l-4.5,0.3c0-0.6,0.2-2.3,0.7-5
		c0.4-2.7,0.8-5.4,1-7.9h-0.3c-0.1,0.9-0.7,1.3-1.8,1.3c-0.5,0-1.8,0-3.9-0.1s-3.4-0.1-3.8-0.1c-1.2,0-1.9,0.5-2.2,1.6
		c-0.4,1.2-0.7,4.5-1.1,10l-4.4,0.3c0.3-1.7,0.8-5.8,1.6-12.3c0.4-3.5,0.6-6.8,0.6-9.7c0-1.2,0-2.3-0.1-3.2l4.4-0.6
		c0,0.8-0.3,4.7-0.9,11.6h0.3c0.2-0.9,0.8-1.3,2-1.3c0.5,0,1.7,0,3.8,0.1s3.4,0.1,3.9,0.1c1.4,0,2.2-0.8,2.5-2.5
		c0-0.2,0.1-1.6,0.1-4.2c0-1.2-0.1-2.3-0.2-3.2L517.9,119.3z"/>
	<path class="st0" d="M544.8,124.7c0,2.4-1.1,4.2-3.3,5.4c-2.8,1.6-7.6,2.4-14.3,2.6c0,3.2,0.5,5.5,1.6,6.9s2.9,2.1,5.5,2.1
		c2.5,0,5.3-0.9,8.3-2.7l-0.6,4c-2.4,1.7-5.3,2.6-8.8,2.6c-3.6,0-6.2-1.1-7.9-3.2c-1.7-2.2-2.5-4.9-2.5-8.2c0-4.9,1.4-8.7,4.3-11.4
		c2.8-2.7,6.1-4.1,9.8-4.1c2.3,0,4.1,0.5,5.6,1.6S544.8,122.8,544.8,124.7z M540.6,124.8c0-0.9-0.4-1.6-1.3-2.1
		c-0.9-0.5-2-0.8-3.3-0.8c-1.9,0-3.7,0.6-5.3,1.9s-2.7,3.2-3.2,5.8c5.4-0.1,9.1-0.7,11.1-1.7C539.9,127.2,540.6,126.2,540.6,124.8z"
		/>
	<path class="st0" d="M572.9,129.1c0,4.8-1.2,8.7-3.6,11.8c-2.4,3.1-5.7,4.6-9.8,4.6c-2.8,0-4.8-0.6-6.1-1.7h-0.2
		c-0.5,4.9-0.9,9.2-1.2,12.8l-4.7,0.3c2.2-16.2,3.3-26.6,3.3-31c0-1.7-0.1-3.7-0.4-6l4.5-0.7c0.1,1.5,0.2,3.5,0.2,6.1h0.2
		c2.3-4.3,5.5-6.4,9.5-6.4c2.5,0,4.5,0.9,6.1,2.8C572.1,123.5,572.9,126,572.9,129.1z M568.4,130.7c0-5.4-1.9-8.1-5.7-8.1
		c-1.9,0-3.8,1.2-5.6,3.6s-2.9,5.2-3.2,8.4l-0.5,6c1.7,1,3.4,1.5,5,1.5c3.4,0,5.9-1.1,7.5-3.2S568.4,134.1,568.4,130.7z"/>
	<path class="st0" d="M598.7,118.6c-1.6,8.9-2.4,15.4-2.4,19.5c0,1.8,0.2,4,0.5,6.5l-4.5,0.7c-0.1-1.6-0.2-3.5-0.2-5.9H592
		c-2.2,4.1-5.2,6.1-8.8,6.1c-2.1,0-3.7-0.8-4.9-2.5c-1.1-1.7-1.7-3.9-1.7-6.6c0-4.4,1.5-8.2,4.6-11.5c3.1-3.3,7.5-4.9,13.3-5
		l1.2-0.8L598.7,118.6z M593.9,122.8c-4.5,0.1-7.7,1.3-9.8,3.7c-2,2.3-3.1,5.5-3.1,9.3c0,4,1.3,6,4,6c1.9,0,3.6-1.3,5.1-4
		c1.6-2.7,2.5-5.1,2.9-7.3C593.5,128.3,593.8,125.7,593.9,122.8z"/>
	<path class="st0" d="M637.2,126.8c0,1.4-0.2,4.2-0.6,8.5s-0.6,7.5-0.6,9.5l-4.5,0.3c0-0.8,0.3-3.3,0.8-7.5s0.8-7.4,0.8-9.5
		s-0.4-3.5-1.1-4.3c-0.7-0.8-1.9-1.2-3.5-1.2c-1.9,0-3.8,1.3-5.5,3.8c-1.8,2.5-2.8,5.3-3.1,8.3c-0.4,3.9-0.7,7.3-0.9,10.2l-4.3,0.3
		c1.2-9.1,1.8-15.3,1.8-18.5c0-1.8-0.1-4.1-0.4-6.8l4.5-0.7c0.1,1.5,0.2,3.6,0.2,6.1h0.2c2.3-4.3,5.4-6.4,9.4-6.4
		C634.9,118.9,637.2,121.5,637.2,126.8z"/>
	<path class="st0" d="M666.7,130.1c0,4.2-1.3,7.9-3.8,11s-5.9,4.7-10.1,4.7c-2.8,0-5.1-1.1-7.1-3.3s-3-5.1-3-8.6
		c0-4.2,1.3-7.8,3.8-10.8s5.9-4.5,10.2-4.5c2.8,0,5.2,1,7.1,3.1C665.7,123.8,666.7,126.6,666.7,130.1z M662.2,130.9
		c0-2.5-0.6-4.6-1.7-6.3c-1.1-1.7-2.7-2.6-4.8-2.6c-2.6,0-4.7,1.2-6.3,3.7s-2.3,5.1-2.3,8c0,2.5,0.6,4.6,1.7,6.3
		c1.1,1.8,2.8,2.6,4.9,2.6c2.6,0,4.7-1.2,6.2-3.7C661.4,136.4,662.2,133.7,662.2,130.9z"/>
	<path class="st0" d="M708.1,107.3l-0.7,4.3c-1,0.1-3.2,0.4-6.8,0.9c-3.4,0.5-5.7,1-7,1.5c-1.8,0.8-3.2,2.1-4.2,3.9
		c-1,1.9-1.9,4.8-2.6,9h0.2c2.8-4.5,6.5-6.8,11.3-6.8c2.5,0,4.6,0.9,6.2,2.8s2.4,4.3,2.4,7.4c0,4.5-1.3,8.2-4,11.1
		c-2.7,2.9-6.1,4.4-10.4,4.4c-3.3,0-5.8-1.1-7.4-3.4c-1.6-2.3-2.4-5-2.4-8.1c0-5.4,0.8-10.4,2.5-14.8s3.6-7.2,5.8-8.3
		c2.6-1.3,6.1-2.3,10.5-2.9C703.8,108,706,107.7,708.1,107.3z M702.6,131.2c0-2.2-0.5-3.9-1.6-5.3c-1-1.4-2.5-2.1-4.4-2.1
		c-2.8,0-5,1.1-6.9,3.4c-1.8,2.2-2.7,4.7-2.7,7.5c0,2.1,0.5,3.9,1.6,5.5s2.6,2.4,4.4,2.4c3.1,0,5.4-1.1,7.1-3.4
		S702.6,134.2,702.6,131.2z"/>
	<path class="st0" d="M734.8,119.2c-1.2,9.8-1.8,16.3-1.8,19.5c0,1.8,0.1,3.8,0.4,6l-4.5,0.7c-0.1-1.5-0.2-3.6-0.2-6.1h-0.2
		c-2.3,4.3-5.4,6.4-9.4,6.4c-4.6,0-6.9-2.6-6.9-7.8c0-1.4,0.2-4.2,0.6-8.5c0.4-4.3,0.6-7.4,0.6-9.5l4.6-0.5c0,0.8-0.3,3.3-0.8,7.6
		c-0.5,4.3-0.8,7.5-0.8,9.7c0,2.1,0.4,3.5,1.1,4.3c0.7,0.8,1.9,1.2,3.5,1.2c1.9,0,3.8-1.3,5.5-3.8c1.8-2.5,2.8-5.3,3.1-8.3
		c0.4-4.3,0.6-7.7,0.6-10.1L734.8,119.2z"/>
	<path class="st0" d="M757.8,124.6c0,3-1.5,5.1-4.5,6.4v0.3c2.7,1,4.1,2.9,4.1,5.8c0,2.7-1.1,4.8-3.2,6.3s-4.8,2.2-8,2.2
		c-3,0-5.7-0.6-8-1.9l0.8-3.6c2.3,1.4,4.8,2.1,7.5,2.1c4.6,0,6.8-1.6,6.8-4.9c0-2.5-2.4-3.8-7.1-3.8c-1.5,0-2.9,0.1-4,0.2l0.8-3.5
		c1.2,0.1,2.4,0.2,3.4,0.2c1.9,0,3.6-0.4,5.1-1.2s2.3-2,2.3-3.6c0-2.1-1.8-3.1-5.5-3.1c-2.3,0-4.7,0.7-7.3,2l0.7-3.7
		c1.8-1.2,4.4-1.8,7.5-1.8c2.4,0,4.4,0.5,6.1,1.5S757.8,122.7,757.8,124.6z"/>
	<path class="st0" d="M785,119.3c0,1.5-0.3,5.3-1,11.7c-0.6,5.8-1,10.4-1.1,13.9l-4.5,0.3c0-0.6,0.2-2.3,0.7-5
		c0.4-2.7,0.8-5.4,1-7.9h-0.3c-0.1,0.9-0.7,1.3-1.8,1.3c-0.5,0-1.8,0-3.9-0.1c-2.1-0.1-3.4-0.1-3.8-0.1c-1.2,0-1.9,0.5-2.2,1.6
		c-0.4,1.2-0.7,4.5-1.1,10l-4.4,0.3c0.3-1.7,0.8-5.8,1.6-12.3c0.4-3.5,0.6-6.8,0.6-9.7c0-1.2,0-2.3-0.1-3.2l4.4-0.6
		c0,0.8-0.3,4.7-0.9,11.6h0.3c0.2-0.9,0.8-1.3,2-1.3c0.5,0,1.7,0,3.8,0.1s3.4,0.1,3.9,0.1c1.4,0,2.2-0.8,2.5-2.5
		c0-0.2,0.1-1.6,0.1-4.2c0-1.2-0.1-2.3-0.2-3.2L785,119.3z"/>
	<path class="st0" d="M811.8,124.7c0,2.4-1.1,4.2-3.3,5.4c-2.8,1.6-7.6,2.4-14.3,2.6c0,3.2,0.5,5.5,1.6,6.9s2.9,2.1,5.6,2.1
		c2.5,0,5.3-0.9,8.3-2.7l-0.7,3.9c-2.4,1.7-5.3,2.6-8.8,2.6c-3.6,0-6.2-1.1-7.9-3.2c-1.7-2.2-2.5-4.9-2.5-8.2
		c0-4.9,1.4-8.7,4.3-11.4c2.8-2.7,6.1-4.1,9.8-4.1c2.3,0,4.1,0.5,5.6,1.6S811.8,122.8,811.8,124.7z M807.6,124.8
		c0-0.9-0.4-1.6-1.3-2.1c-0.9-0.5-2-0.8-3.3-0.8c-1.9,0-3.7,0.6-5.3,1.9s-2.7,3.2-3.2,5.8c5.4-0.1,9.1-0.7,11.1-1.7
		C806.9,127.2,807.6,126.2,807.6,124.8z"/>
	<path class="st0" d="M835,119.6l-1.1,4.1c-1.7-0.5-3.4-0.8-5.2-0.8c-2.6,0-4.8,1-6.3,3.1c-1.6,2-2.4,4.5-2.4,7.2
		c0,2.5,0.6,4.6,1.7,6.2c1.1,1.6,2.8,2.4,4.9,2.4c2.3,0,4.7-0.8,7.3-2.4l-0.7,3.9c-1.8,1.5-4.3,2.3-7.5,2.3c-3.4,0-6-1.2-7.8-3.6
		c-1.6-2.1-2.4-4.8-2.4-8.1c0-4,1.3-7.5,3.9-10.4s6.2-4.3,10.7-4.3C832.1,119.1,833.7,119.3,835,119.6z"/>
	<path class="st0" d="M859.9,119.5c0,2.3-1.8,6.7-5.5,13.3c-3.6,6.6-5.8,10.7-6.3,12.4c-1.6,4.4-3,7.3-4.4,8.8
		c-1.7,1.7-4.2,2.6-7.7,2.6l0.2-3.7c2.3,0,4.3-0.9,6.1-2.6c1.8-1.7,2.7-3.7,2.7-5.8c0-2.7-1.1-7-3.3-13.1s-3.3-9.9-3.3-11.5l5.2-0.3
		c0,2.2,0.7,5.8,2.1,11c1.4,5.1,2.1,8.4,2.1,9.9h0.3c0.1-0.9,1.4-4,3.8-9.4c2.4-5.3,3.7-9.1,3.7-11.2L859.9,119.5z"/>
</g>
</svg>
