<?xml version="1.0" encoding="utf-8"?>
<!-- Generator: Adobe Illustrator 22.0.1, SVG Export Plug-In . SVG Version: 6.00 Build 0)  -->
<svg version="1.1" id="Слой_1" xmlns="http://www.w3.org/2000/svg" xmlns:xlink="http://www.w3.org/1999/xlink" x="0px" y="0px"
	 viewBox="0 0 90.2 83.1" style="enable-background:new 0 0 90.2 83.1;" xml:space="preserve">
<style type="text/css">
	.st0{fill:#2E7990;}
</style>
<g>
	<path class="st0" d="M9.4,28.6c-7.5,2.5-9.9-4.3-4.2-12.2C20.9-5,69.5-5,85.1,16.4c5.7,7.9,3.4,14.7-4.2,12.2L67.2,24
		c-2.9-1-2.9-1.9-0.5-4.9c2.3-2.9,1.7-3.2,0.4-3.8c-12.5-6-31.2-6-43.7,0c-1.3,0.6-1.9,0.9,0.4,3.8c2.4,3.1,2.3,3.9-0.5,4.9
		L9.4,28.6L9.4,28.6z M84.8,80c-21.2,4-61.5,4.1-79.3,0c-2.7-3.7-4.2-6.8-5.3-11.2c-0.2-2.2,0.1-4.4,1.1-6.9
		c4.5-11.7,11.8-22.4,18.3-32.2c1.4-1.8,4.8-2.7,9.5-3.2c0.8,0,1.5-0.1,2.3-0.1v-6.2c0-6.2,8.4-6.2,8.4,0v5.9c1.8,0,3.6,0,5.4,0
		c1.8,0,3.6,0,5.4,0v-5.9c0-6.2,8.4-6.2,8.4,0v6.2c0.8,0,1.5,0.1,2.3,0.1c4.7,0.5,8.1,1.4,9.5,3.2c6.5,9.7,13.8,20.5,18.3,32.2
		c1,2.4,1.3,4.7,1.1,6.8C89.1,73.1,87.6,76.3,84.8,80L84.8,80z M45.2,34.1c10.7,0,19.3,6.4,19.3,14.3c0,7.9-8.6,14.3-19.3,14.3
		c-10.7,0-19.3-6.4-19.3-14.3C25.9,40.5,34.5,34.1,45.2,34.1z"/>
</g>
</svg>
