<?xml version="1.0" encoding="utf-8"?>
<!-- Generator: Adobe Illustrator 22.0.1, SVG Export Plug-In . SVG Version: 6.00 Build 0)  -->
<svg version="1.1" xmlns="http://www.w3.org/2000/svg" xmlns:xlink="http://www.w3.org/1999/xlink" x="0px" y="0px"
	 viewBox="0 0 85 85" style="enable-background:new 0 0 85 85;" xml:space="preserve">
<style type="text/css">
	.st0{fill:#673AB7;}
</style>
<g id="Слой_2">
</g>
<g id="Слой_1">
	<g>
		<path d="M5265.6,2380.1v-2c0-2.8-5-4-9.7-4s-9.7,1.3-9.7,4v2c0,1.8,0.7,3.6,2,4.9l5,4.9c0.3,0.3,0.4,0.6,0.4,1v6.4
			c0,0.4,0.2,0.7,0.6,0.8l2.9,0.9c0.5,0.1,1-0.2,1-0.8v-7.2c0-0.4,0.2-0.7,0.4-1l5.1-5C5264.9,2383.7,5265.6,2381.9,5265.6,2380.1z
			 M5255.9,2380c-4.8,0-7.4-1.3-7.5-1.8l0,0c0.1-0.5,2.7-1.8,7.5-1.8s7.3,1.3,7.5,1.8C5263.2,2378.7,5260.7,2380,5255.9,2380z"/>
		<path d="M5260.9,2390.3c-0.6,0-1,0.4-1,1s0.4,1,1,1h4.3c0.6,0,1-0.4,1-1s-0.4-1-1-1H5260.9z"/>
		<path d="M5265.2,2393.7h-4.3c-0.6,0-1,0.4-1,1s0.4,1,1,1h4.3c0.6,0,1-0.4,1-1C5266.2,2394.1,5265.8,2393.7,5265.2,2393.7z"/>
		<path d="M5265.2,2397h-4.3c-0.6,0-1,0.4-1,1s0.4,1,1,1h4.3c0.6,0,1-0.4,1-1C5266.2,2397.5,5265.8,2397,5265.2,2397z"/>
	</g>
	<g>
		<path class="st0" d="M82.6,1.3H2.7c-1.1,0-2,0.9-2,2.1v9.7c0,1.2,0.9,2.1,2,2.1h79.8c1.1,0,2-0.9,2-2.1V3.4
			C84.6,2.2,83.7,1.3,82.6,1.3z"/>
		<path class="st0" d="M82.6,24.3H2.7c-1.1,0-2,0.9-2,2.1V36c0,1.2,0.9,2.1,2,2.1h79.8c1.1,0,2-0.9,2-2.1v-9.7
			C84.6,25.2,83.7,24.3,82.6,24.3z"/>
		<path class="st0" d="M82.6,47.2H2.7c-1.1,0-2,0.9-2,2.1V59c0,1.2,0.9,2.1,2,2.1h79.8c1.1,0,2-0.9,2-2.1v-9.7
			C84.6,48.1,83.7,47.2,82.6,47.2z"/>
		<path class="st0" d="M82.6,70.2H2.7c-1.1,0-2,0.9-2,2.1v9.7c0,1.2,0.9,2.1,2,2.1h79.8c1.1,0,2-0.9,2-2.1v-9.7
			C84.6,71.1,83.7,70.2,82.6,70.2z"/>
	</g>
</g>
</svg>
