<?xml version="1.0" standalone="no"?>
<!DOCTYPE svg PUBLIC "-//W3C//DTD SVG 20010904//EN"
 "http://www.w3.org/TR/2001/REC-SVG-20010904/DTD/svg10.dtd">
<svg version="1.0" xmlns="http://www.w3.org/2000/svg"
 width="700.000000pt" height="700.000000pt" viewBox="0 0 700.000000 700.000000"
 preserveAspectRatio="xMidYMid meet">
<metadata>
Created by potrace 1.11, written by Peter Selinger 2001-2013
</metadata>
<g transform="translate(0.000000,700.000000) scale(0.100000,-0.100000)"
fill="#000000" stroke="none">
<path d="M1665 6962 c-22 -1 -51 -8 -64 -15 -25 -13 -63 -66 -76 -107 -4 -14
-16 -43 -26 -65 -10 -22 -76 -177 -147 -344 l-130 -304 -205 -104 c-164 -83
-218 -115 -268 -162 -118 -109 -181 -246 -182 -401 -1 -52 1 -111 5 -130 3
-19 20 -109 37 -200 50 -260 53 -227 -26 -287 -277 -211 -476 -556 -522 -908
-19 -145 -19 -201 -1 -243 19 -42 65 -68 111 -63 15 1 169 74 343 161 243 122
316 154 320 143 10 -24 7 -51 -7 -65 -7 -7 -28 -33 -47 -58 -19 -25 -43 -54
-52 -65 -235 -280 -288 -383 -290 -557 -1 -103 -9 -68 122 -549 61 -222 122
-446 136 -498 l25 -94 -160 -161 c-95 -96 -162 -171 -165 -186 -5 -24 -10 -66
-20 -155 -2 -22 -7 -67 -11 -100 -4 -33 -9 -76 -11 -95 -4 -45 -14 -138 -19
-170 -2 -14 -6 -54 -10 -90 -4 -36 -8 -78 -10 -95 -2 -16 -7 -61 -10 -100 -4
-38 -8 -72 -10 -75 -10 -17 -18 -199 -19 -415 -1 -271 2 -289 55 -328 25 -18
57 -19 1005 -18 538 0 996 0 1017 0 54 1 107 53 107 105 0 70 -18 89 -150 163
-19 11 -116 66 -215 123 -99 57 -198 113 -220 125 -22 12 -62 35 -90 51 -27
16 -62 36 -77 43 -16 8 -28 20 -28 28 0 7 73 302 161 656 l161 642 2 927 c0
509 4 930 9 934 4 4 130 -47 280 -114 290 -129 611 -260 655 -267 68 -12 93
-12 143 -4 70 12 145 50 193 96 31 30 137 79 614 283 l577 247 70 66 c38 37
72 64 76 59 4 -4 37 -90 74 -192 70 -193 72 -201 60 -345 -2 -22 -6 -92 -9
-155 -4 -63 -9 -137 -11 -165 -5 -47 -7 -84 -20 -313 -3 -48 -7 -114 -10 -147
-2 -33 -7 -105 -10 -160 -4 -55 -8 -125 -11 -155 -2 -30 -7 -102 -10 -160 -3
-58 -7 -125 -9 -150 -2 -25 -7 -99 -10 -165 l-7 -120 161 -642 c89 -354 161
-649 161 -656 0 -7 -15 -21 -32 -30 -18 -9 -53 -28 -78 -43 -25 -14 -160 -91
-300 -171 -378 -215 -370 -209 -370 -289 0 -49 53 -104 102 -105 18 0 502 0
1075 0 l1042 -1 30 22 c58 40 58 72 6 280 -26 102 -48 192 -50 200 -2 8 -8 33
-13 55 -10 38 -16 662 -6 695 3 13 38 15 236 14 259 -1 284 3 318 58 19 32 20
49 20 684 0 426 -4 661 -10 680 -6 16 -23 38 -38 49 -28 21 -87 25 -407 25
l-121 0 0 469 0 469 46 -18 c25 -10 97 -41 162 -68 64 -28 125 -49 135 -47 10
2 25 4 33 4 22 1 66 43 75 71 21 67 -9 301 -57 445 -24 71 -100 233 -137 290
-71 111 -218 272 -298 327 -34 24 -29 3 -74 301 -40 270 -70 375 -150 525 -66
125 -115 190 -223 297 -90 90 -207 175 -298 217 l-47 22 -167 394 c-170 399
-193 441 -242 443 -24 0 -968 0 -1018 0 l-40 -1 -1 -115 0 -115 86 1 c159 2
146 7 144 -55 -1 -29 -27 -153 -58 -274 -58 -235 -62 -257 -43 -296 22 -49 64
-63 194 -66 20 0 20 -6 22 -132 1 -145 9 -168 68 -198 16 -8 31 -16 33 -17 2
-1 -31 -89 -74 -195 -80 -200 -105 -274 -105 -320 0 -14 -3 -28 -7 -30 -5 -1
-43 -46 -86 -98 -139 -168 -205 -246 -232 -277 -11 -12 -54 -37 -95 -56 -41
-19 -124 -57 -183 -86 -60 -28 -110 -51 -111 -51 -2 0 -46 -20 -97 -44 -52
-24 -170 -79 -264 -121 -93 -43 -174 -81 -180 -85 -5 -3 -39 -19 -75 -34 l-66
-27 -51 20 c-28 11 -178 83 -333 161 -261 131 -281 142 -274 163 17 57 23 65
41 61 50 -12 291 -66 313 -70 14 -3 66 -14 115 -26 162 -37 165 -37 205 -24
50 17 709 577 881 748 176 176 210 220 232 308 22 85 13 163 -28 245 -79 157
-255 233 -425 182 -69 -21 -95 -39 -176 -117 l-64 -63 0 43 c0 105 -80 165
-167 124 -54 -26 -63 -59 -63 -231 0 -81 -4 -153 -8 -158 -6 -9 -302 -232
-329 -248 -8 -5 -109 57 -262 159 l-250 167 22 31 c22 31 26 71 27 266 l0 35
72 -1 c81 -2 116 14 142 64 19 36 16 55 -49 307 -30 120 -55 239 -55 266 0 56
-18 50 148 50 l82 1 0 116 0 117 -493 0 c-270 0 -510 -1 -532 -3z m513 -231
l52 -1 0 -60 c0 -38 15 -122 40 -220 22 -88 40 -163 40 -168 0 -5 -25 -10 -56
-11 -67 -2 -108 -23 -126 -65 -7 -18 -12 -78 -12 -153 l0 -123 -36 0 c-32 0
-46 11 -143 109 -119 120 -147 134 -211 107 -43 -18 -70 -57 -68 -102 2 -48 5
-53 126 -174 116 -117 113 -109 41 -125 -5 -2 -35 -9 -66 -18 l-56 -14 -131
174 -130 174 25 57 c13 31 31 71 38 87 26 60 174 401 198 460 l25 60 74 5 c63
4 160 5 376 1z m2856 -3 c1 -2 67 -153 145 -336 l142 -334 -130 -174 c-125
-165 -132 -173 -156 -164 -14 5 -25 8 -25 6 0 -6 -121 30 -123 37 -1 3 44 53
100 109 56 57 107 116 112 131 36 93 -63 185 -152 142 -18 -8 -77 -60 -132
-115 -86 -86 -104 -100 -132 -100 l-33 0 0 120 c0 66 0 122 0 125 1 3 -7 19
-17 36 -25 42 -62 59 -128 59 -49 0 -56 2 -51 18 7 23 47 183 51 202 2 8 8 35
15 60 7 25 12 75 13 112 l1 67 110 3 c133 4 387 1 390 -4z m-3626 -1005 c67
-90 126 -171 131 -181 10 -19 13 -226 4 -261 -4 -17 -15 -9 -71 57 -36 42 -71
76 -78 76 -15 -2 -164 -126 -164 -137 0 -7 200 -251 316 -387 12 -14 77 -92
144 -173 l122 -148 411 -205 c227 -113 415 -209 420 -213 10 -9 -112 -251
-127 -251 -6 0 -212 89 -458 197 l-447 198 -377 376 -376 376 -31 159 c-40
208 -41 297 -3 376 44 92 94 133 283 229 92 48 171 84 174 80 4 -3 61 -79 127
-168z m4181 116 c193 -130 345 -344 399 -564 16 -64 61 -333 87 -525 6 -43 28
-179 51 -320 15 -90 18 -181 18 -627 l1 -523 -121 0 -122 0 -6 88 c-4 48 -9
103 -11 122 -2 19 -7 67 -10 105 -3 39 -8 86 -10 105 -2 19 -7 73 -10 120 -4
47 -9 92 -10 102 -2 9 -6 56 -10 105 -4 48 -8 104 -10 123 -2 19 -6 69 -10
110 -4 41 -8 89 -9 106 -3 31 -18 145 -21 154 -1 3 -5 30 -10 60 -5 30 -9 57
-10 60 -1 3 -5 28 -9 55 -5 28 -21 129 -37 225 -17 96 -31 183 -32 192 -4 26
-8 27 -62 17 -64 -12 -125 -21 -148 -22 -21 -1 -20 -31 8 -187 8 -47 18 -105
21 -130 3 -25 7 -52 9 -60 3 -8 7 -32 11 -54 3 -21 7 -46 9 -55 1 -9 6 -36 10
-61 l6 -45 -26 30 c-37 43 -128 181 -159 242 -60 119 -118 297 -132 401 -2 20
-8 64 -12 97 -4 33 -7 102 -6 153 1 88 3 95 35 140 18 26 36 49 39 52 3 3 48
62 100 133 52 70 101 127 108 127 8 0 49 -23 91 -51z m-1763 -62 c13 -16 24
-36 25 -45 0 -9 2 -26 4 -36 6 -34 -25 -78 -135 -189 l-106 -109 -92 93 -92
92 115 113 c71 70 125 116 142 120 16 3 32 7 38 8 23 6 78 -20 101 -47z
m-1706 -403 c69 -174 74 -190 74 -262 0 -67 -7 -94 -48 -207 -48 -133 -77
-205 -82 -205 -1 0 -25 11 -53 26 -38 18 -72 50 -132 122 -44 53 -89 107 -99
119 -29 34 -50 69 -45 74 12 13 37 199 42 314 3 72 7 132 10 135 3 4 227 65
254 69 3 1 39 -82 79 -185z m2745 150 c61 -15 112 -28 113 -30 2 -1 5 -53 7
-116 6 -167 27 -292 76 -445 86 -268 229 -497 428 -685 108 -102 104 -94 115
-231 l4 -47 -325 2 -326 3 -22 60 c-12 33 -54 150 -94 260 -40 110 -97 265
-126 345 -132 357 -146 401 -147 464 -1 74 -3 70 80 283 59 151 70 172 87 169
11 -2 70 -17 130 -32z m-1516 -188 l93 -93 -269 -224 c-147 -123 -270 -227
-271 -231 -2 -5 -7 -6 -11 -4 -7 5 -17 7 -88 22 -16 3 -48 10 -73 15 -48 11
-73 17 -105 23 -82 17 -221 50 -227 55 -4 4 0 29 8 56 34 109 26 274 -17 369
-10 23 -19 47 -19 54 0 7 88 -46 195 -118 108 -72 208 -133 223 -136 44 -9 84
14 282 165 102 77 185 140 185 141 0 0 42 -42 94 -94z m1114 -673 l67 -187
-92 -93 -93 -92 -390 -166 c-214 -91 -404 -172 -420 -180 -128 -58 -145 -61
-145 -26 0 34 -61 140 -106 183 l-45 44 148 69 c81 37 182 83 223 103 41 19
107 49 145 67 39 18 142 65 229 106 l159 74 119 143 c66 78 123 142 126 142 4
0 37 -84 75 -187z m-3375 -276 c-102 -94 -209 -159 -495 -302 -158 -80 -291
-145 -294 -145 -8 0 12 93 36 169 70 225 255 468 460 604 l40 27 153 -152 153
-153 -53 -48z m5326 -40 c59 -83 119 -211 151 -321 14 -50 24 -93 23 -97 -3
-8 -187 66 -202 82 -6 5 -11 87 -11 181 -1 95 -5 183 -9 196 -12 36 0 26 48
-41z m-5019 -160 c80 -80 91 -86 227 -147 79 -34 145 -64 147 -66 2 -2 -155
-4 -351 -4 l-355 0 -10 46 -11 46 42 29 c22 16 46 32 51 36 16 13 139 117 153
131 7 6 15 12 18 12 2 0 42 -37 89 -83z m1503 -147 c9 -5 57 -25 106 -44 48
-19 99 -42 113 -51 53 -35 67 -130 27 -190 -22 -34 -87 -64 -125 -60 -30 4
-259 92 -272 104 -10 10 109 251 123 251 6 0 18 -4 28 -10z m-1128 -1160 l0
-860 -95 -383 c-52 -210 -102 -407 -110 -437 -31 -111 -105 -419 -105 -434 0
-10 -9 -16 -25 -16 -22 0 -25 4 -26 40 -1 22 -2 43 -3 48 -1 4 -6 43 -10 87
-5 44 -9 87 -11 95 -2 8 -6 44 -9 80 -4 36 -8 79 -11 95 -2 17 -6 59 -10 95
-4 36 -8 76 -10 90 -19 143 -19 146 18 202 117 178 177 284 178 312 3 148 0
1026 -4 1033 -4 6 -176 10 -219 4 -5 -1 -8 -226 -8 -501 l0 -500 -106 -167
c-59 -93 -126 -197 -149 -233 -23 -36 -56 -87 -73 -115 -400 -630 -420 -660
-442 -663 -20 -3 -21 -1 -16 40 3 24 8 68 11 98 4 30 10 89 15 130 5 41 11 95
14 120 14 141 18 177 21 200 4 22 23 200 28 255 1 10 79 97 173 191 129 130
173 179 177 204 4 18 5 35 2 39 -2 4 -6 18 -9 32 -2 13 -11 50 -20 82 -9 31
-23 83 -32 115 -8 31 -55 203 -104 382 -49 179 -98 361 -110 405 -28 103 -24
209 11 278 13 25 91 129 172 231 l148 186 375 0 374 0 0 -860z m3861 838 c0
-13 2 -32 4 -42 2 -11 6 -54 9 -95 4 -42 8 -92 11 -111 2 -19 7 -66 10 -105 3
-38 8 -95 11 -125 3 -30 7 -137 7 -237 l2 -183 -243 0 c-198 0 -248 -3 -272
-15 -61 -32 -60 -10 -61 -734 0 -657 0 -661 21 -696 27 -43 43 -48 160 -51 52
-1 96 -2 97 -3 0 -1 -6 -27 -14 -58 -8 -32 -16 -65 -18 -73 -10 -45 -30 -130
-61 -255 -18 -77 -36 -150 -39 -162 -4 -16 -13 -23 -30 -23 -24 0 -33 19 -50
100 -2 8 -69 277 -149 598 -129 515 -145 589 -142 645 10 134 16 236 21 332 3
55 8 129 10 165 3 36 8 106 10 155 3 50 7 124 10 165 3 41 7 109 10 150 7 119
16 280 20 335 2 28 6 108 10 178 6 108 9 149 14 165 1 1 145 2 321 2 l320 0 1
-22z m511 -680 c2 -7 4 -60 3 -117 l0 -105 -109 3 c-60 1 -112 4 -116 6 -6 3
-7 216 -1 221 0 1 50 2 110 3 81 1 110 -2 113 -11z m578 -563 l0 -115 -690 0
-690 0 0 115 0 115 690 0 690 0 0 -115z m-805 -520 l0 -170 112 -1 c76 -1 113
2 115 10 3 6 4 84 3 174 l0 162 287 0 288 0 0 -288 0 -288 -687 0 -688 1 -3
288 -2 287 287 -2 287 -3 1 -170z m221 -638 c7 -4 12 -535 5 -568 0 -3 -11 -4
-24 -2 -17 3 -38 33 -85 121 -100 189 -161 302 -202 378 -22 39 -37 73 -35 75
6 6 331 2 341 -4z m-5001 -135 c2 -19 15 -141 20 -187 2 -16 9 -77 15 -135 6
-58 14 -121 17 -140 11 -72 10 -329 -1 -323 -22 13 -391 256 -399 263 -5 4 23
56 61 116 39 60 117 182 173 271 57 89 105 160 108 157 3 -2 5 -12 6 -22z
m4513 -84 c27 -51 65 -122 84 -158 19 -36 58 -108 86 -161 29 -53 52 -101 52
-106 0 -7 -335 -235 -406 -276 -19 -11 -10 236 11 313 10 36 18 70 19 75 4 25
100 405 102 405 2 0 25 -42 52 -92z m-4896 -689 c92 -62 168 -114 168 -115 0
-2 -94 -4 -208 -4 l-208 0 2 103 c1 56 3 108 3 115 1 7 16 12 38 12 31 0 67
-20 205 -111z m952 -1 c104 -60 192 -111 195 -113 2 -3 -103 -5 -235 -5 l-239
0 0 115 0 114 45 -1 c37 0 74 -18 234 -110z m3517 99 c4 -36 5 -194 1 -204 -3
-10 -60 -13 -240 -13 -136 0 -232 4 -226 9 5 5 32 21 59 36 28 15 74 41 103
57 29 16 90 51 135 78 63 37 92 48 124 48 25 0 44 -4 44 -11z m958 -26 c6 -20
19 -71 29 -113 l20 -78 -255 0 -254 0 173 115 c169 112 174 115 226 113 51 -1
52 -2 61 -37z"/>
</g>
</svg>
