<?xml version="1.0" encoding="utf-8"?>
<!-- Generator: Adobe Illustrator 22.0.1, SVG Export Plug-In . SVG Version: 6.00 Build 0)  -->
<svg version="1.1" id="Слой_1" xmlns="http://www.w3.org/2000/svg" xmlns:xlink="http://www.w3.org/1999/xlink" x="0px" y="0px"
	 viewBox="0 0 56.7 56.7" style="enable-background:new 0 0 56.7 56.7;" xml:space="preserve">
<style type="text/css">
	.st0{fill:#673AB7;}
</style>
<title>Privacy</title>
<path class="st0" d="M53.4,25.8l-0.1-0.1c-9-9.1-18.4-13.4-27.8-12.7c-13.9,1-22.6,12.3-23,12.8l-2.8,3.8l2.8,3.8l0,0
	c0.4,0.5,9.1,11.9,23,12.8c0.6,0,1.2,0.1,1.9,0.1c8.7,0,17.5-4.3,25.9-12.8l3.1-3.9L53.4,25.8z M24.1,17.2c0.5-0.1,0.9,0.1,1.1,0.6
	c0,0,0,0,0,0c0.1,0.5-0.1,1-0.6,1.1c0,0,0,0,0,0c-4.9,1.3-5,7.9-5,8c0,0.5-0.4,0.9-0.9,0.9c-0.5,0-0.9-0.4-0.9-0.9
	C17.8,26.5,17.9,18.9,24.1,17.2z M51.4,31.8c-8.5,8.5-17.1,12.4-25.7,11.9C13.1,42.8,4.9,32.2,4.7,31.9L3,29.7l1.6-2.2
	c0.1-0.1,5.7-7.3,14.6-10.4c-5.2,4.6-5.7,12.7-1.1,17.9s12.7,5.7,17.9,1.1s5.7-12.7,1.1-17.9c-0.2-0.3-0.5-0.5-0.8-0.8
	c5,1.9,10,5.3,15,10.2l1.7,2.1L51.4,31.8z"/>
</svg>
