<?xml version="1.0" encoding="utf-8"?>
<!-- Generator: Adobe Illustrator 22.0.1, SVG Export Plug-In . SVG Version: 6.00 Build 0)  -->
<svg version="1.1" id="Слой_1" xmlns="http://www.w3.org/2000/svg" xmlns:xlink="http://www.w3.org/1999/xlink" x="0px" y="0px"
	 viewBox="0 0 50 50" style="enable-background:new 0 0 50 50;" xml:space="preserve">
<style type="text/css">
	.st0{fill:#FFFFFF;}
</style>
<title>notification</title>
<g>
	<path class="st0" d="M44,10L44,10c1.3-1.3,1.3-3.3,0.1-4.5c-1.2-1.2-3.2-1.2-4.4,0l0,0.1C34,1,25.8,1.3,20.5,6.3l-7,6.4
		c-1,0.9-2.3,1.2-3.5,1c-2-0.3-4,0.4-5.4,1.8l-0.2,0.2c-2.5,2.5-2.5,6.6,0,9.1l20.5,20.5c2.5,2.5,6.6,2.5,9.1,0l0.2-0.2
		c1.4-1.4,2.1-3.5,1.8-5.5c-0.2-1.3,0.2-2.6,1-3.5l6.4-7C48.3,23.8,48.6,15.6,44,10z M42.6,7c0.4,0.4,0.4,1.1,0,1.5l-0.7-0.7L41.1,7
		C41.5,6.6,42.2,6.6,42.6,7C42.6,7,42.6,7,42.6,7z"/>
	<path class="st0" d="M8.3,32c-1.3,3.8,0.7,8,4.5,9.3c1.5,0.5,3.2,0.5,4.8,0L8.3,32z"/>
</g>
</svg>
