<?xml version="1.0" encoding="utf-8"?>
<!-- Generator: Adobe Illustrator 22.0.1, SVG Export Plug-In . SVG Version: 6.00 Build 0)  -->
<svg version="1.1" id="Слой_1" xmlns="http://www.w3.org/2000/svg" xmlns:xlink="http://www.w3.org/1999/xlink" x="0px" y="0px"
	 viewBox="0 0 50 50" style="enable-background:new 0 0 50 50;" xml:space="preserve">
<style type="text/css">
	.st0{fill:#2E7990;}
</style>
<path class="st0" d="M2.6,14.5v-3.6c0-0.6,0.7-1.8,0.8-1.8C9.1,3.3,16.9,0,25,0c8.2,0,16,3.3,21.7,9.1c0,0,0.7,1.1,0.7,1.8v3.6
	c0,1.3-1,2.9-2.2,3.5l-0.5,0.3c-1.2,0.6-3.1,0.5-4.3-0.1l-4.3-2.4c-1.2-0.7-2.1-2.3-2.1-3.6V9.7c-5.6-3.2-12.5-3.2-18.1,0v2.4
	c0,1.3-1,3-2.1,3.6l-4.3,2.4c-1.2,0.7-3.1,0.7-4.3,0.1L4.8,18C3.6,17.4,2.6,15.9,2.6,14.5z M47.6,33.9v12.9c0,1.8-1.5,3.2-3.2,3.2
	H5.6c-1.8,0-3.2-1.5-3.2-3.2V33.9c0-1.8,1-4.3,2.3-5.5L13,20c1.3-1.3,3.7-2.3,5.5-2.3v-3.2c1.5-2,3.9-3.2,6.5-3.2s4.9,1.2,6.5,3.2
	v3.2c1.8,0,4.3,1,5.5,2.3l8.3,8.3C46.6,29.6,47.6,32.1,47.6,33.9z M34.7,33.9c0-5.4-4.3-9.7-9.7-9.7c-5.3,0-9.7,4.3-9.7,9.7
	s4.3,9.7,9.7,9.7C30.4,43.5,34.7,39.2,34.7,33.9z M25,27.4c-3.6,0-6.5,2.9-6.5,6.5s2.9,6.5,6.5,6.5c3.6,0,6.5-2.9,6.5-6.5
	S28.6,27.4,25,27.4z"/>
</svg>
