<?xml version="1.0" encoding="utf-8"?>
<!-- Generator: Adobe Illustrator 22.0.1, SVG Export Plug-In . SVG Version: 6.00 Build 0)  -->
<svg version="1.1" id="Слой_1" xmlns="http://www.w3.org/2000/svg" xmlns:xlink="http://www.w3.org/1999/xlink" x="0px" y="0px"
	 viewBox="0 0 56.7 56.7" style="enable-background:new 0 0 56.7 56.7;" xml:space="preserve">
<style type="text/css">
	.st0{fill:#2E7990;}
</style>
<title>Privacy</title>
<path class="st0" d="M53.7,25.8l-0.1-0.1c-9-9.1-18.4-13.4-27.8-12.7c-13.9,1-22.6,12.3-23,12.8L0,29.6l2.8,3.8l0,0
	c0.4,0.5,9.1,11.9,23,12.8c0.6,0,1.2,0.1,1.9,0.1c8.7,0,17.5-4.3,25.9-12.8l3.1-3.9L53.7,25.8z M24.4,17.2c0.5-0.1,0.9,0.1,1.1,0.6
	l0,0c0.1,0.5-0.1,1-0.6,1.1l0,0c-4.9,1.3-5,7.9-5,8c0,0.5-0.4,0.9-0.9,0.9s-0.9-0.4-0.9-0.9C18.1,26.5,18.2,18.9,24.4,17.2z
	 M51.7,31.8C43.2,40.3,34.6,44.2,26,43.7C13.4,42.8,5.2,32.2,5,31.9l-1.7-2.2l1.6-2.2c0.1-0.1,5.7-7.3,14.6-10.4
	c-5.2,4.6-5.7,12.7-1.1,17.9s12.7,5.7,17.9,1.1s5.7-12.7,1.1-17.9c-0.2-0.3-0.5-0.5-0.8-0.8c5,1.9,10,5.3,15,10.2l1.7,2.1L51.7,31.8
	z"/>
</svg>
