<svg width="171" height="39" viewBox="0 0 171 39" fill="none" xmlns="http://www.w3.org/2000/svg">
<path d="M37.8876 23.2969H35.3499V18.1021L36.9955 18.8159C37.3127 18.9547 37.6894 18.7961 37.8282 18.4789C37.8678 18.3996 37.8876 18.3202 37.8876 18.2211C37.8876 15.941 36.7972 13.7798 34.9534 12.4316L34.5965 10.0722C34.2595 7.85151 32.8122 5.96793 30.7502 5.03606L28.9461 0.812873C28.8469 0.574947 28.609 0.436157 28.3711 0.436157H22.6612V1.70509H23.9301V2.26025L23.3155 4.71882C23.2362 5.05588 23.4344 5.41277 23.7715 5.49208C23.8309 5.51191 23.8706 5.51191 23.9301 5.51191H24.5645V6.78084C24.5645 7.11791 24.8222 7.39549 25.1593 7.41531L24.3464 9.45751C24.2275 9.75492 24.1482 10.0722 24.1283 10.3894L22.2647 12.61L16.4556 15.3263L15.9402 15.1281L12.7482 13.5419L12.9266 13.066L16.1781 13.7997C16.3763 13.8393 16.5746 13.7997 16.7134 13.6807L20.52 10.5083C20.5398 10.4885 20.5596 10.4885 20.5596 10.4687L22.1457 8.88252C22.9189 8.10926 22.9189 6.86015 22.1457 6.08689C21.3725 5.31364 20.1235 5.31364 19.3502 6.08689L18.8348 6.54292V6.1662C18.8348 5.82914 18.5572 5.53173 18.2003 5.53173C17.8435 5.53173 17.5659 5.80931 17.5659 6.1662V7.75237L15.6626 9.19976L12.8671 7.336C13.0455 7.21704 13.1447 7.01877 13.1447 6.80067V5.53173H13.7791C14.1162 5.53173 14.4135 5.25415 14.4135 4.89727C14.4135 4.83778 14.4135 4.79813 14.3937 4.73865L13.7791 2.28008V1.72492H15.048V0.455984H9.31824C9.0605 0.455984 8.84242 0.614601 8.74329 0.8327L6.93911 5.07571L5.05564 6.02741C3.78677 6.66188 3.09285 8.04978 3.35059 9.45751L3.80659 11.8764C1.70503 13.2841 0.436157 15.6634 0.436157 18.2211C0.436157 18.5582 0.713722 18.8556 1.07059 18.8556C1.16972 18.8556 1.26885 18.8358 1.34816 18.7961L4.75824 17.091L4.81772 17.428L3.27129 19.3711C2.63685 20.1642 2.41877 21.215 2.69633 22.1865L4.16346 27.5795L2.5179 29.2252C2.41877 29.3243 2.35929 29.4631 2.33946 29.6019L1.72485 35.2923C1.72485 35.3121 1.72485 35.3319 1.72485 35.3518V37.8896C1.72485 38.2267 2.00242 38.5241 2.35929 38.5241H13.1447C13.4817 38.5241 13.7791 38.2465 13.7791 37.8896C13.7791 37.6715 13.6602 37.4534 13.4619 37.3345L9.4372 35.0345L11.2215 27.8769C11.2414 27.8174 11.2414 27.7778 11.2414 27.7183V17.7056L11.3009 17.547L14.1558 18.8159C14.1558 18.8159 14.1558 18.8159 14.1756 18.8159L16.1384 19.609C16.3763 19.7081 16.6341 19.7478 16.8918 19.7478C17.5262 19.7478 18.1012 19.4702 18.4977 18.9745L24.8024 16.2582C24.8817 16.2186 24.9412 16.1789 25.0007 16.1194L25.6549 15.4651L26.448 17.6659L25.8135 27.6985C25.8135 27.758 25.8136 27.8174 25.8334 27.8968L27.6177 35.0544L23.593 37.3543C23.2956 37.5327 23.1767 37.9095 23.3551 38.2267C23.4741 38.425 23.6723 38.5439 23.9102 38.5439H35.3301C35.6671 38.5439 35.9645 38.2664 35.9645 37.9095C35.9645 37.85 35.9645 37.8103 35.9447 37.7508L35.3301 35.2923V31.5648H37.8678C38.2049 31.5648 38.5022 31.2872 38.5022 30.9303V23.9512C38.5221 23.5744 38.2445 23.2969 37.8876 23.2969ZM32.8122 23.2969V22.0279H34.081V23.2969H32.8122ZM27.5384 16.9522L25.4963 11.3014C25.3377 10.8652 25.3377 10.3894 25.5162 9.95319L26.2101 8.18857L27.697 8.56529C27.5781 11.4204 28.8073 14.1565 31.0476 15.941L31.1468 16.9522H27.5384ZM36.5395 17.2298L35.3499 16.7341V15.0686C35.3499 15.0289 35.3499 15.0091 35.3499 14.9695L35.2706 14.4738C35.9249 15.2669 36.361 16.1987 36.5395 17.2298ZM33.3475 10.2704L34.081 15.0884V20.759H32.7527L32.1777 14.3548C32.1777 14.335 32.1777 14.3152 32.1777 14.3152L31.5433 10.5083L30.2942 10.7264L30.8295 13.9979C29.4814 12.4316 28.8073 10.3894 28.9857 8.32736L30.4727 6.34465C32.0191 7.09808 33.0699 8.58511 33.3475 10.2704ZM24.7429 4.2628L25.1791 2.51801C25.1989 2.45853 25.1989 2.41887 25.1989 2.35939V1.72492H27.9548L29.5409 5.45243L28.1134 7.35583L27.0824 7.09808L28.1927 5.98776C28.4504 5.73001 28.4504 5.33346 28.1927 5.09554C27.9349 4.83778 27.5384 4.83778 27.3005 5.09554L26.2101 6.18603H25.8532V4.91709C25.8532 4.58003 25.5756 4.28262 25.2188 4.28262C25.1989 4.2628 24.7429 4.2628 24.7429 4.2628ZM11.0035 12.6497L9.75442 11.1428C9.97251 10.2902 10.0518 9.43768 10.0122 8.56529L11.4991 8.18857L12.193 9.95319C12.3715 10.3894 12.3715 10.8652 12.2129 11.3014L11.6181 12.9471L11.0035 12.6497ZM20.2622 6.93946C20.5398 6.66188 20.9958 6.66188 21.2734 6.93946C21.5509 7.21704 21.5509 7.67307 21.2734 7.95065L20.1433 9.08079L19.1322 8.06961L20.2622 6.93946ZM16.0591 10.4885L18.1607 8.92218L19.1916 9.95319L16.1582 12.4514L13.3826 11.8368L13.4222 11.7376C13.68 11.004 13.68 10.1911 13.3826 9.47734L13.224 9.10062L15.3256 10.5083C15.5436 10.6471 15.841 10.6471 16.0591 10.4885ZM9.75442 1.72492H12.5102V2.35939C12.5102 2.41887 12.5102 2.45853 12.5301 2.51801L12.9662 4.2628H12.5102C12.1732 4.2628 11.8758 4.54038 11.8758 4.89727V6.14638H11.4991L10.4087 5.05588C10.1509 4.79813 9.75442 4.79813 9.51651 5.05588C9.27859 5.31364 9.25877 5.71018 9.51651 5.9481L10.6268 7.05842L9.57598 7.336L8.1485 5.4326L9.75442 1.72492ZM5.61077 7.13773L7.23651 6.32482L8.72346 8.30753C8.76311 8.82304 8.76311 9.33855 8.70364 9.87388L7.91059 8.942L6.93911 9.75492L10.1113 13.5617C10.1708 13.6212 10.2302 13.6807 10.3095 13.7203L14.8101 15.9806L14.0963 17.4082L9.0605 15.1479L4.93668 11.0239L4.59964 9.19976C4.44103 8.36702 4.85737 7.53428 5.61077 7.13773ZM1.80416 17.1504C2.10155 15.3858 3.11268 13.8195 4.59964 12.8281L4.81772 12.6893L6.50294 14.3746C5.92798 14.9496 5.27372 15.4057 4.54016 15.7824L1.80416 17.1504ZM2.99372 37.2552V35.9862H3.4299L5.3332 37.2552H2.99372ZM6.42364 32.1199L6.78051 35.3914V36.7L4.48068 35.1535L6.42364 32.1199ZM8.0692 37.2552V35.9862H8.5252L10.7457 37.2552H8.0692ZM8.20798 34.7371H8.00972L7.5339 30.4941C7.5339 30.4545 7.5339 30.4346 7.5339 30.4148L8.60451 28.7097C8.66398 28.6105 8.70364 28.4916 8.70364 28.3726V22.6624H7.43477V28.1942L3.27129 34.7173H3.0532L3.58851 29.9191L5.3332 28.1743C5.49181 28.0157 5.55129 27.7778 5.49181 27.5597L3.92555 21.8296C3.76694 21.2348 3.8859 20.6202 4.26259 20.1443L5.80903 18.2211H9.95268V27.6588L8.20798 34.7371ZM6.04694 16.9522L5.94781 16.4367C6.46329 16.0996 6.95894 15.7031 7.39511 15.2669L8.24764 16.1194C8.30711 16.1789 8.36659 16.2186 8.4459 16.2384L9.99233 16.9323L6.04694 16.9522ZM17.6056 18.0427C17.4271 18.3996 16.9909 18.5582 16.6142 18.4194L15.2859 17.884L15.9798 16.4763L17.1892 16.9522C17.5857 17.1108 17.784 17.5668 17.6254 17.9634C17.6055 18.003 17.6056 18.0228 17.6056 18.0427ZM24.2076 15.1479L18.9339 17.4082C18.8546 16.8332 18.5175 16.2979 18.0219 15.9806L22.9189 13.7203C22.9982 13.6807 23.0775 13.6212 23.137 13.5419L24.4059 12.035L25.1791 14.1565L24.2076 15.1479ZM27.697 18.2211H31.2459L31.5433 21.4331V23.3167H29.0056C28.6685 23.3167 28.3711 23.5943 28.3711 23.9512V30.9303C28.3711 31.2674 28.6487 31.5648 29.0056 31.5648H29.9175L29.1443 34.7371H28.8668L27.1022 27.6985L27.697 18.2211ZM30.2744 35.4311L31.0476 32.2389L32.6139 35.1535L30.2744 36.7198V35.4311ZM26.3092 37.2552L28.5297 35.9862H29.0056V37.2552H26.3092ZM31.7416 37.2552L33.6449 35.9862H34.2198L34.537 37.2552H31.7416ZM34.081 34.7371H33.8233L32.1182 31.5648H34.081V34.7371ZM37.2532 30.2958H29.64V27.1235H32.8122V29.0269H34.081V27.1235H37.2532V30.2958ZM37.2532 25.8347H29.64V24.5658H37.2532V25.8347Z" fill="white"/>
<path d="M56.8612 15.8816C56.8612 19.1729 54.3037 20.8384 49.1687 20.8384C48.336 20.8384 47.0077 20.8185 45.1837 20.7591C45.3423 19.6884 45.6595 17.0514 46.1551 12.848C46.4525 10.0326 46.6111 7.63349 46.6508 5.63094H48.5541C48.8911 5.63094 49.4661 5.61112 50.3186 5.59129C51.1711 5.57146 51.8056 5.55164 52.2616 5.55164C53.6494 5.55164 54.7597 5.80939 55.5924 6.34472C56.4251 6.88005 56.8216 7.63349 56.8216 8.6645C56.8216 9.53689 56.544 10.3102 56.0087 10.9843C55.4734 11.6584 54.7795 12.1144 53.927 12.3127V12.4911C54.7002 12.6299 55.3941 12.967 55.9691 13.542C56.5638 14.117 56.8612 14.8902 56.8612 15.8816ZM53.8873 16.0402C53.8873 14.6919 52.6779 14.0178 50.2591 14.0178C49.7635 14.0178 49.2877 14.0377 48.8317 14.0773C48.6532 15.7031 48.5343 17.1902 48.455 18.5582C48.7722 18.6177 49.1885 18.6574 49.6842 18.6574C51.191 18.6574 52.2814 18.4393 52.9158 18.0229C53.5503 17.6065 53.8873 16.9324 53.8873 16.0402ZM53.7485 9.51706C53.7485 8.34726 52.9951 7.75245 51.4685 7.75245C50.7151 7.75245 50.0014 7.81193 49.3471 7.93089C49.3471 8.24813 49.248 9.59637 49.0299 11.9558C49.3868 11.9756 49.704 11.9756 50.0212 11.9756C52.4995 11.9756 53.7485 11.1627 53.7485 9.51706Z" fill="white"/>
<path d="M62.6702 9.49723C62.6702 9.71533 62.5909 10.5084 62.4125 11.8765C62.2341 13.2446 62.0953 14.3747 61.9962 15.2471C61.8177 16.8531 61.6789 18.697 61.56 20.759L58.6059 20.878C58.7645 19.8668 59.0024 17.9832 59.3395 15.2471C59.4981 13.7799 59.5774 12.392 59.5774 11.1231C59.5774 10.6075 59.5575 10.1713 59.5377 9.83429L62.6702 9.49723ZM63.5624 5.98782C63.5624 6.58264 63.3443 7.11797 62.928 7.53434C62.5116 7.95071 61.9962 8.18863 61.3815 8.18863C60.9057 8.18863 60.5489 8.04984 60.2911 7.75244C60.0334 7.45503 59.9144 7.09814 59.9144 6.66194C59.9144 6.0473 60.1325 5.5318 60.5488 5.11543C60.9652 4.69906 61.4807 4.48096 62.0953 4.48096C63.0668 4.50078 63.5624 4.99646 63.5624 5.98782Z" fill="white"/>
<path d="M73.1583 9.71533L72.7419 11.8765C72.2859 12.2929 71.3145 13.4428 69.7878 15.3066C68.2612 17.1703 67.5078 18.241 67.5078 18.5384V18.7169C69.1732 18.7169 70.8188 18.6375 72.4644 18.4988L72.167 20.7591H63.8202L64.2167 18.5979C64.6331 18.241 65.6442 17.1109 67.2501 15.2075C68.856 13.304 69.6689 12.2136 69.6689 11.936V11.7575C67.9242 11.7575 66.3183 11.817 64.8511 11.936L65.1485 9.71533H73.1583Z" fill="white"/>
<path d="M91.2397 5.63098C90.9819 7.8318 90.863 10.5878 90.863 13.8989C90.863 16.0799 90.9224 18.36 91.0414 20.7591H87.7304C87.7304 17.5471 87.9684 13.3636 88.4244 8.18868H88.2459C88.127 8.68436 87.889 9.45762 87.4925 10.5679C87.096 11.6783 86.3624 13.5024 85.2125 16.0997C84.0824 18.6971 83.4678 20.2436 83.4282 20.7591H80.9103C80.9103 20.1445 80.6129 18.5385 80.0379 15.9213C79.463 13.3041 79.1061 11.6188 78.9871 10.8455C78.8682 10.0723 78.769 9.18004 78.6699 8.18868H78.4915C78.3924 9.08091 78.0751 11.3015 77.5398 14.8506C77.0045 18.3997 76.7468 20.3824 76.7468 20.7591H73.7531C73.7531 20.541 74.2487 18.1419 75.2598 13.5618C76.271 8.98177 76.8063 6.32493 76.9054 5.63098H81.0887C81.0887 6.70165 81.3663 8.60505 81.9412 11.3809C82.5162 14.1567 82.7937 16.0402 82.7937 17.0514H82.9722C83.0515 16.298 83.7256 14.3748 84.9944 11.3015C86.2633 8.22834 86.9374 6.32493 86.9969 5.63098H91.2397Z" fill="white"/>
<path d="M103.928 9.19983C103.314 13.4032 102.997 16.298 102.997 17.9039C102.997 18.7169 103.056 19.6289 103.195 20.6401L100.34 20.9573C100.3 20.3229 100.261 19.5694 100.261 18.7169H100.082C99.2296 20.2832 97.9409 21.0763 96.2557 21.0763C95.2842 21.0763 94.5506 20.7194 94.055 19.9858C93.5593 19.2522 93.3016 18.2608 93.3016 16.9919C93.3016 15.1678 93.936 13.5221 95.2247 12.0549C96.4936 10.5877 98.496 9.81447 101.192 9.75499L101.708 9.3981L103.928 9.19983ZM100.954 11.5791C99.3287 11.5989 98.1391 12.0748 97.3857 12.9868C96.6324 13.8989 96.2557 15.1678 96.2557 16.754C96.2557 18.1815 96.7117 18.8953 97.6038 18.8953C98.2977 18.8953 98.9322 18.3798 99.527 17.3686C100.102 16.3574 100.479 15.3859 100.637 14.454C100.776 13.542 100.895 12.5704 100.954 11.5791Z" fill="white"/>
<path d="M112.692 9.83434L112.374 12.1541C111.284 12.1145 110.392 12.0748 109.698 12.0748C109.381 14.1765 109.202 15.7428 109.202 16.7738C109.202 17.5471 109.281 18.0824 109.46 18.36C109.638 18.6376 109.936 18.7962 110.372 18.7962C111.046 18.7962 111.78 18.5583 112.553 18.0824L112.156 20.2039C111.462 20.7591 110.59 21.0367 109.559 21.0367C108.469 21.0367 107.676 20.7591 107.22 20.2238C106.764 19.6884 106.526 18.7764 106.526 17.5075C106.526 16.5557 106.724 14.7713 107.101 12.1145C106.724 12.1145 106.189 12.1343 105.514 12.1938L105.832 9.91365C106.426 9.95331 106.962 9.99296 107.438 9.99296C107.517 9.45763 107.676 8.36713 107.933 6.76113L110.511 6.42407C110.372 7.15768 110.193 8.34731 109.955 9.99296C110.59 9.91365 111.502 9.89382 112.692 9.83434Z" fill="white"/>
<path d="M124.369 12.1343C124.369 14.4342 121.891 15.6437 116.914 15.7428C116.914 16.7738 117.113 17.5273 117.489 18.0428C117.866 18.5583 118.54 18.7962 119.472 18.7962C120.721 18.7962 122.03 18.3996 123.457 17.6066L123.1 19.9065C121.95 20.7194 120.483 21.116 118.719 21.116C117.133 21.116 115.963 20.6401 115.209 19.6884C114.456 18.7367 114.079 17.4876 114.079 15.9213C114.079 13.8989 114.714 12.2731 115.983 11.0636C117.252 9.85414 118.758 9.2395 120.483 9.2395C121.693 9.2395 122.624 9.49726 123.298 9.99293C124.012 10.4688 124.369 11.1826 124.369 12.1343ZM121.772 12.3524C121.772 11.5989 121.197 11.2222 120.047 11.2222C119.393 11.2222 118.758 11.4601 118.183 11.9558C117.589 12.4317 117.212 13.1256 117.033 14.0377C120.186 13.9782 121.772 13.423 121.772 12.3524Z" fill="white"/>
<path d="M49.1885 28.1408C49.1885 28.4184 49.1489 28.9735 49.0696 29.8261C48.9903 30.6787 48.9506 31.3132 48.9506 31.7097L48.0584 31.7692C48.0584 31.6106 48.1179 31.1149 48.2171 30.2821C48.3162 29.4494 48.3757 28.8149 48.3757 28.3986C48.3757 27.9822 48.2964 27.7046 48.1576 27.546C48.0188 27.3874 47.7809 27.3081 47.4637 27.3081C47.087 27.3081 46.7103 27.5658 46.3732 28.0615C46.0164 28.5572 45.8181 29.1123 45.7586 29.7072C45.6793 30.4804 45.6198 31.1545 45.5802 31.7295L44.7277 31.789C44.9656 29.9847 45.0845 28.7554 45.0845 28.121C45.0845 27.7641 45.0647 27.3081 45.0052 26.7727L45.8974 26.6339C45.9172 26.9314 45.9371 27.3477 45.9371 27.8434H45.9767C46.4327 26.9908 47.0473 26.5745 47.8404 26.5745C48.7325 26.5745 49.1885 27.09 49.1885 28.1408Z" fill="white"/>
<path d="M55.0373 28.7951C55.0373 29.6279 54.7795 30.3615 54.2839 30.9761C53.7882 31.5908 53.1141 31.908 52.2814 31.908C51.7263 31.908 51.2703 31.6899 50.8738 31.2537C50.4773 30.8175 50.279 30.2425 50.279 29.5486C50.279 28.7158 50.5367 28.0021 51.0324 27.4072C51.528 26.8124 52.2021 26.515 53.0546 26.515C53.6098 26.515 54.0856 26.7133 54.4623 27.1297C54.839 27.546 55.0373 28.1012 55.0373 28.7951ZM54.1451 28.9538C54.1451 28.4581 54.0261 28.0417 53.808 27.7046C53.5899 27.3676 53.2727 27.1891 52.8564 27.1891C52.3409 27.1891 51.9246 27.4271 51.6073 27.9227C51.2901 28.4184 51.1513 28.9339 51.1513 29.5089C51.1513 30.0046 51.2703 30.421 51.4884 30.758C51.7065 31.1149 52.0435 31.2735 52.4599 31.2735C52.9753 31.2735 53.3917 31.0356 53.6891 30.5399C53.9865 30.0442 54.1451 29.5089 54.1451 28.9538Z" fill="white"/>
<path d="M60.5885 26.634C60.3506 28.5771 60.2317 29.8659 60.2317 30.5003C60.2317 30.8572 60.2515 31.2538 60.311 31.6899L59.4188 31.8287C59.399 31.5313 59.3792 31.115 59.3792 30.6193H59.3395C58.8835 31.4719 58.2689 31.8882 57.4758 31.8882C56.5638 31.8882 56.1078 31.3727 56.1078 30.3417C56.1078 30.0641 56.1475 29.509 56.2268 28.6564C56.3061 27.8038 56.3458 27.1892 56.3458 26.7728L57.2578 26.6737C57.2578 26.8323 57.1983 27.328 57.0992 28.1805C57 29.0331 56.9405 29.6676 56.9405 30.1038C56.9405 30.5201 57.0198 30.7977 57.1586 30.9563C57.2974 31.115 57.5353 31.1943 57.8525 31.1943C58.2292 31.1943 58.6059 30.9365 58.943 30.4408C59.28 29.9452 59.4981 29.39 59.5576 28.7952C59.6369 27.9426 59.6765 27.2685 59.6765 26.7927L60.5885 26.634Z" fill="white"/>
<path d="M65.3865 26.7133L65.1684 27.5262C64.8313 27.427 64.4943 27.3675 64.1374 27.3675C63.622 27.3675 63.1858 27.5658 62.8884 27.9822C62.5712 28.3787 62.4126 28.8744 62.4126 29.4097C62.4126 29.9054 62.5315 30.3218 62.7496 30.639C62.9677 30.9563 63.3047 31.1149 63.7211 31.1149C64.1771 31.1149 64.6529 30.9563 65.1684 30.639L65.0296 31.4123C64.6727 31.7097 64.1771 31.8683 63.5426 31.8683C62.8686 31.8683 62.3531 31.6304 61.9962 31.1545C61.679 30.7382 61.5204 30.2028 61.5204 29.5485C61.5204 28.7554 61.7781 28.0615 62.2936 27.4865C62.8091 26.9115 63.5228 26.6339 64.415 26.6339C64.8313 26.6141 65.1486 26.6538 65.3865 26.7133Z" fill="white"/>
<path d="M70.7395 26.7132C70.7395 26.8322 70.5016 27.1296 70.0059 27.6253C69.5103 28.121 69.1336 28.4779 68.856 28.6761V28.7356C69.2129 29.1718 69.55 29.727 69.8275 30.4011C70.1249 31.0752 70.2637 31.5114 70.2637 31.7097L69.312 31.7692C69.312 31.6106 69.2129 31.2735 69.0345 30.758C68.856 30.2425 68.5983 29.727 68.2811 29.2709C68.0035 29.5287 67.726 29.8658 67.4484 30.302C67.1708 30.7382 67.0122 31.214 66.9726 31.7295L66.0804 31.789C66.1399 31.4519 66.239 30.639 66.3976 29.3503C66.4769 28.6563 66.5166 28.002 66.5166 27.427C66.5166 27.1891 66.5166 26.971 66.4967 26.8124L67.4484 26.6736C67.4484 26.852 67.4087 27.2882 67.3294 27.9624C67.2501 28.6365 67.1708 29.3304 67.0915 30.0045H67.151C67.2898 29.6675 67.7458 29.0727 68.519 28.2201C69.2922 27.3675 69.6887 26.8719 69.6887 26.6934L70.7395 26.7132Z" fill="white"/>
<path d="M77.9958 28.1408C77.9958 28.4184 77.9562 28.9735 77.8769 29.8261C77.7976 30.6787 77.7579 31.3132 77.7579 31.7097L76.8658 31.7692C76.8658 31.6106 76.9252 31.1149 77.0244 30.2821C77.1235 29.4494 77.183 28.8149 77.183 28.3986C77.183 27.9822 77.1037 27.7046 76.9649 27.546C76.8261 27.3874 76.5882 27.3081 76.271 27.3081C75.8943 27.3081 75.5176 27.5658 75.1805 28.0615C74.8237 28.5572 74.6254 29.1123 74.5659 29.7072C74.4866 30.4804 74.4272 31.1545 74.3875 31.7295L73.535 31.789C73.7729 29.9847 73.8918 28.7554 73.8918 28.121C73.8918 27.7641 73.872 27.3081 73.8125 26.7727L74.7047 26.6339C74.7245 26.9314 74.7444 27.3477 74.7444 27.8434H74.784C75.24 26.9908 75.8546 26.5745 76.6477 26.5745C77.5398 26.5745 77.9958 27.09 77.9958 28.1408Z" fill="white"/>
<path d="M83.2894 26.515C82.9722 28.2796 82.8136 29.5684 82.8136 30.3813C82.8136 30.7382 82.8532 31.1744 82.9127 31.6701L82.0205 31.8089C82.0007 31.4916 81.9809 31.1149 81.9809 30.6391H81.9412C81.505 31.452 80.9103 31.8485 80.1965 31.8485C79.7802 31.8485 79.463 31.6899 79.225 31.3528C79.007 31.0158 78.888 30.5796 78.888 30.0442C78.888 29.1719 79.1854 28.4184 79.8 27.7641C80.4146 27.1098 81.287 26.7926 82.4369 26.7728L82.6748 26.6142L83.2894 26.515ZM82.3377 27.3478C81.4456 27.3676 80.8111 27.6055 80.3948 28.0814C79.9983 28.5374 79.7802 29.1719 79.7802 29.9253C79.7802 30.7184 80.0379 31.1149 80.5732 31.1149C80.9499 31.1149 81.287 30.8572 81.5843 30.3218C81.9016 29.7865 82.08 29.3106 82.1593 28.8744C82.2584 28.4382 82.3179 27.9227 82.3377 27.3478Z" fill="white"/>
<path d="M89.039 28.5968C89.039 29.5485 88.8011 30.3218 88.3252 30.9364C87.8494 31.5511 87.1951 31.8485 86.3823 31.8485C85.8272 31.8485 85.4306 31.7295 85.1729 31.5114H85.1332C85.0341 32.4829 84.9548 33.3355 84.8953 34.0493L83.9635 34.1088C84.3997 30.8968 84.6178 28.8348 84.6178 27.9624C84.6178 27.6253 84.5979 27.2288 84.5385 26.7727L85.4306 26.6339C85.4505 26.9314 85.4703 27.3279 85.4703 27.8434H85.5099C85.9659 26.9908 86.6004 26.5745 87.3934 26.5745C87.8891 26.5745 88.2856 26.7529 88.6028 27.1296C88.8804 27.4865 89.039 27.9822 89.039 28.5968ZM88.1468 28.9141C88.1468 27.8434 87.7701 27.3081 87.0167 27.3081C86.64 27.3081 86.2633 27.546 85.9065 28.0218C85.5496 28.4977 85.3315 29.0529 85.272 29.6873L85.1729 30.8769C85.5099 31.0752 85.847 31.1744 86.1642 31.1744C86.8383 31.1744 87.3339 30.9563 87.6511 30.5399C87.9684 30.1235 88.1468 29.5882 88.1468 28.9141Z" fill="white"/>
<path d="M89.9906 31.7692C90.2285 29.965 90.3475 28.7555 90.3475 28.1012C90.3475 27.7443 90.3276 27.2883 90.2682 26.753L91.1603 26.6142C91.1802 26.8719 91.2 27.2685 91.2 27.8236H91.2396C91.7353 26.9711 92.3499 26.5547 93.0438 26.5547C93.7774 26.5547 94.1343 26.9711 94.1343 27.8236H94.1739C94.6696 26.9711 95.2842 26.5547 95.9781 26.5547C96.4143 26.5547 96.7117 26.6736 96.8703 26.9314C97.0289 27.1892 97.1082 27.546 97.1082 28.0417C97.1082 28.3788 97.0685 28.9538 96.9892 29.7865C96.9099 30.6193 96.8703 31.2537 96.8703 31.6701L95.9583 31.7296C95.9583 31.5908 96.0177 31.0951 96.1169 30.2425C96.216 29.39 96.2755 28.815 96.2755 28.5176C96.2755 28.0417 96.216 27.7245 96.1169 27.546C96.0177 27.3676 95.8591 27.2883 95.641 27.2883C95.2445 27.2883 94.8678 27.546 94.5308 28.0616C94.1937 28.5771 94.0153 29.1124 93.9558 29.6676C93.8765 30.421 93.8369 31.0951 93.8369 31.6899L92.9249 31.7494C92.9249 31.5908 92.9843 31.0951 93.1033 30.2227C93.2223 29.3503 93.2817 28.7952 93.2817 28.5374C93.2817 28.0616 93.2223 27.7245 93.1231 27.546C93.024 27.3676 92.8654 27.2883 92.6671 27.2883C92.2706 27.2883 91.9137 27.546 91.5767 28.0616C91.2396 28.5771 91.0414 29.1124 90.9819 29.6676C90.9026 30.5201 90.8431 31.1942 90.8035 31.6899L89.9906 31.7692Z" fill="white"/>
<path d="M102.679 26.6538C102.679 26.9512 102.62 27.7046 102.481 28.9736C102.362 30.1236 102.283 31.0356 102.263 31.7296L101.371 31.789C101.371 31.6701 101.41 31.333 101.51 30.7977C101.589 30.2623 101.668 29.727 101.708 29.2313H101.648C101.629 29.4098 101.51 29.4891 101.291 29.4891C101.192 29.4891 100.935 29.4891 100.518 29.4693C100.102 29.4494 99.8442 29.4494 99.7649 29.4494C99.527 29.4494 99.3882 29.5486 99.3287 29.7667C99.2494 30.0046 99.1899 30.6589 99.1106 31.7494L98.2383 31.8089C98.2978 31.4718 98.3969 30.6589 98.5555 29.3701C98.6348 28.6762 98.6745 28.0219 98.6745 27.4469C98.6745 27.209 98.6745 26.9909 98.6546 26.8124L99.527 26.6935C99.527 26.8521 99.4675 27.6253 99.3485 28.9934H99.408C99.4477 28.815 99.5666 28.7357 99.8045 28.7357C99.9037 28.7357 100.142 28.7357 100.558 28.7555C100.974 28.7753 101.232 28.7753 101.331 28.7753C101.609 28.7753 101.767 28.6167 101.827 28.2796C101.827 28.24 101.847 27.9624 101.847 27.4469C101.847 27.209 101.827 26.9909 101.807 26.8124L102.679 26.6538Z" fill="white"/>
<path d="M108.013 27.7244C108.013 28.2003 107.794 28.5572 107.358 28.7951C106.803 29.1123 105.852 29.2709 104.523 29.3106C104.523 29.9451 104.622 30.4011 104.84 30.6787C105.058 30.9562 105.415 31.095 105.931 31.095C106.426 31.095 106.982 30.9166 107.576 30.5597L107.457 31.3528C106.982 31.6898 106.407 31.8683 105.713 31.8683C104.999 31.8683 104.484 31.6502 104.146 31.2338C103.809 30.7976 103.651 30.2623 103.651 29.608C103.651 28.6365 103.928 27.883 104.503 27.3477C105.058 26.8124 105.713 26.5348 106.446 26.5348C106.902 26.5348 107.259 26.6339 107.557 26.852C107.854 27.0701 108.013 27.3477 108.013 27.7244ZM107.18 27.7442C107.18 27.5658 107.101 27.427 106.922 27.3279C106.744 27.2287 106.526 27.1693 106.268 27.1693C105.891 27.1693 105.534 27.2882 105.217 27.546C104.9 27.8037 104.682 28.1804 104.583 28.696C105.653 28.6761 106.387 28.5572 106.783 28.3589C107.041 28.2201 107.18 28.0218 107.18 27.7442Z" fill="white"/>
<path d="M113.584 28.5968C113.584 29.5485 113.346 30.3218 112.87 30.9364C112.394 31.5511 111.74 31.8485 110.927 31.8485C110.372 31.8485 109.975 31.7295 109.718 31.5114H109.678C109.579 32.4829 109.499 33.3355 109.44 34.0493L108.508 34.1088C108.944 30.8968 109.162 28.8348 109.162 27.9624C109.162 27.6253 109.143 27.2288 109.083 26.7727L109.975 26.6339C109.995 26.9314 110.015 27.3279 110.015 27.8434H110.055C110.511 26.9908 111.145 26.5745 111.938 26.5745C112.434 26.5745 112.83 26.7529 113.147 27.1296C113.425 27.4865 113.584 27.9822 113.584 28.5968ZM112.691 28.9141C112.691 27.8434 112.315 27.3081 111.561 27.3081C111.185 27.3081 110.808 27.546 110.451 28.0218C110.094 28.4977 109.876 29.0529 109.817 29.6873L109.718 30.8769C110.055 31.0752 110.392 31.1744 110.709 31.1744C111.383 31.1744 111.879 30.9563 112.196 30.5399C112.513 30.1235 112.691 29.5882 112.691 28.9141Z" fill="white"/>
<path d="M118.699 26.515C118.382 28.2796 118.223 29.5684 118.223 30.3813C118.223 30.7382 118.263 31.1744 118.322 31.6701L117.43 31.8089C117.41 31.4916 117.39 31.1149 117.39 30.6391H117.37C116.934 31.452 116.339 31.8485 115.626 31.8485C115.209 31.8485 114.892 31.6899 114.654 31.3528C114.436 31.0158 114.317 30.5796 114.317 30.0442C114.317 29.1719 114.615 28.4184 115.229 27.7641C115.844 27.1098 116.716 26.7926 117.866 26.7728L118.104 26.6142L118.699 26.515ZM117.747 27.3478C116.855 27.3676 116.221 27.6055 115.804 28.0814C115.408 28.5374 115.19 29.1719 115.19 29.9253C115.19 30.7184 115.447 31.1149 115.983 31.1149C116.359 31.1149 116.696 30.8572 116.994 30.3218C117.311 29.7865 117.489 29.3106 117.569 28.8744C117.668 28.4382 117.727 27.9227 117.747 27.3478Z" fill="white"/>
<path d="M126.332 28.1408C126.332 28.4184 126.292 28.9735 126.213 29.8261C126.134 30.6787 126.094 31.3132 126.094 31.7097L125.202 31.7692C125.202 31.6106 125.261 31.1149 125.36 30.2821C125.459 29.4494 125.519 28.8149 125.519 28.3986C125.519 27.9822 125.44 27.7046 125.301 27.546C125.162 27.3874 124.924 27.3081 124.607 27.3081C124.23 27.3081 123.854 27.5658 123.517 28.0615C123.16 28.5572 122.961 29.1123 122.902 29.7072C122.823 30.4804 122.763 31.1545 122.723 31.7295L121.871 31.789C122.109 29.9847 122.228 28.7554 122.228 28.121C122.228 27.7641 122.208 27.3081 122.149 26.7727L123.041 26.6339C123.061 26.9314 123.08 27.3477 123.08 27.8434H123.12C123.576 26.9908 124.191 26.5745 124.984 26.5745C125.876 26.5745 126.332 27.09 126.332 28.1408Z" fill="white"/>
<path d="M132.181 28.7951C132.181 29.6279 131.923 30.3615 131.427 30.9761C130.932 31.5908 130.257 31.908 129.425 31.908C128.87 31.908 128.414 31.6899 128.017 31.2537C127.621 30.8175 127.422 30.2425 127.422 29.5486C127.422 28.7158 127.68 28.0021 128.176 27.4072C128.671 26.8124 129.345 26.515 130.198 26.515C130.753 26.515 131.229 26.7133 131.606 27.1297C131.982 27.546 132.181 28.1012 132.181 28.7951ZM131.288 28.9538C131.288 28.4581 131.169 28.0417 130.951 27.7046C130.733 27.3676 130.416 27.1891 130 27.1891C129.484 27.1891 129.068 27.4271 128.751 27.9227C128.433 28.4184 128.295 28.9339 128.295 29.5089C128.295 30.0046 128.414 30.421 128.632 30.758C128.85 31.1149 129.187 31.2735 129.603 31.2735C130.119 31.2735 130.535 31.0356 130.832 30.5399C131.13 30.0442 131.288 29.5089 131.288 28.9538Z" fill="white"/>
<path d="M140.389 24.2745L140.25 25.1271C140.051 25.1469 139.615 25.2064 138.902 25.3055C138.227 25.4047 137.771 25.5038 137.514 25.603C137.157 25.7616 136.879 26.0193 136.681 26.3762C136.483 26.7529 136.304 27.3279 136.166 28.1607H136.205C136.76 27.2684 137.494 26.8124 138.446 26.8124C138.941 26.8124 139.358 26.9909 139.675 27.3676C139.992 27.7443 140.151 28.2201 140.151 28.8348C140.151 29.727 139.893 30.4606 139.358 31.0356C138.822 31.6106 138.148 31.908 137.296 31.908C136.641 31.908 136.146 31.6899 135.829 31.2339C135.511 30.7778 135.353 30.2425 135.353 29.6279C135.353 28.5572 135.511 27.5658 135.848 26.6934C136.185 25.8211 136.562 25.2659 136.998 25.0478C137.514 24.79 138.208 24.5918 139.08 24.4728C139.536 24.4133 139.972 24.3538 140.389 24.2745ZM139.298 29.0132C139.298 28.577 139.199 28.24 138.981 27.9624C138.783 27.6848 138.485 27.546 138.109 27.546C137.553 27.546 137.117 27.7641 136.741 28.2201C136.384 28.6563 136.205 29.152 136.205 29.7072C136.205 30.1235 136.304 30.4804 136.522 30.7977C136.741 31.1149 137.038 31.2735 137.395 31.2735C138.009 31.2735 138.465 31.0554 138.802 30.5994C139.139 30.1434 139.298 29.608 139.298 29.0132Z" fill="white"/>
<path d="M145.682 26.634C145.444 28.5771 145.325 29.8659 145.325 30.5003C145.325 30.8572 145.345 31.2538 145.405 31.6899L144.512 31.8287C144.493 31.5313 144.473 31.115 144.473 30.6193H144.433C143.977 31.4719 143.362 31.8882 142.569 31.8882C141.657 31.8882 141.201 31.3727 141.201 30.3417C141.201 30.0641 141.241 29.509 141.32 28.6564C141.4 27.8038 141.439 27.1892 141.439 26.7728L142.351 26.6737C142.351 26.8323 142.292 27.328 142.193 28.1805C142.094 29.0331 142.034 29.6676 142.034 30.1038C142.034 30.5201 142.113 30.7977 142.252 30.9563C142.391 31.115 142.629 31.1943 142.946 31.1943C143.323 31.1943 143.7 30.9365 144.037 30.4408C144.393 29.9452 144.592 29.39 144.651 28.7952C144.73 27.9426 144.77 27.2685 144.77 26.7927L145.682 26.634Z" fill="white"/>
<path d="M150.242 27.7047C150.242 28.2995 149.945 28.7159 149.35 28.9736V29.0331C149.885 29.2314 150.163 29.6081 150.163 30.1831C150.163 30.7184 149.945 31.1348 149.528 31.4322C149.112 31.7296 148.577 31.8684 147.942 31.8684C147.348 31.8684 146.812 31.7494 146.356 31.4917L146.515 30.7779C146.971 31.0555 147.466 31.1943 148.002 31.1943C148.914 31.1943 149.35 30.877 149.35 30.2227C149.35 29.727 148.874 29.4693 147.942 29.4693C147.645 29.4693 147.367 29.4891 147.149 29.5089L147.308 28.815C147.546 28.8348 147.784 28.8547 147.982 28.8547C148.359 28.8547 148.696 28.7753 148.993 28.6167C149.29 28.4581 149.449 28.2202 149.449 27.903C149.449 27.4866 149.092 27.2883 148.359 27.2883C147.903 27.2883 147.427 27.4271 146.911 27.6849L147.05 26.9512C147.407 26.7133 147.922 26.5944 148.537 26.5944C149.013 26.5944 149.409 26.6935 149.746 26.8918C150.083 27.09 150.242 27.328 150.242 27.7047Z" fill="white"/>
<path d="M155.635 26.6538C155.635 26.9512 155.575 27.7046 155.437 28.9736C155.318 30.1236 155.238 31.0356 155.218 31.7296L154.326 31.789C154.326 31.6701 154.366 31.333 154.465 30.7977C154.544 30.2623 154.624 29.727 154.663 29.2313H154.604C154.584 29.4098 154.465 29.4891 154.247 29.4891C154.148 29.4891 153.89 29.4891 153.474 29.4693C153.057 29.4494 152.8 29.4494 152.72 29.4494C152.482 29.4494 152.344 29.5486 152.284 29.7667C152.205 30.0046 152.145 30.6589 152.066 31.7494L151.194 31.8089C151.253 31.4718 151.352 30.6589 151.511 29.3701C151.59 28.6762 151.63 28.0219 151.63 27.4469C151.63 27.209 151.63 26.9909 151.61 26.8124L152.482 26.6935C152.482 26.8521 152.423 27.6253 152.304 28.9934H152.363C152.403 28.815 152.522 28.7357 152.76 28.7357C152.859 28.7357 153.097 28.7357 153.513 28.7555C153.93 28.7753 154.187 28.7753 154.287 28.7753C154.564 28.7753 154.723 28.6167 154.782 28.2796C154.782 28.24 154.802 27.9624 154.802 27.4469C154.802 27.209 154.782 26.9909 154.762 26.8124L155.635 26.6538Z" fill="white"/>
<path d="M160.948 27.7245C160.948 28.2003 160.73 28.5572 160.294 28.7951C159.739 29.1124 158.787 29.271 157.459 29.3106C157.459 29.9451 157.558 30.4011 157.776 30.6787C157.994 30.9563 158.351 31.0951 158.886 31.0951C159.382 31.0951 159.937 30.9166 160.532 30.5598L160.393 31.333C159.917 31.6701 159.342 31.8485 158.648 31.8485C157.935 31.8485 157.419 31.6304 157.082 31.2141C156.745 30.7779 156.586 30.2425 156.586 29.5882C156.586 28.6167 156.864 27.8633 157.439 27.3279C157.994 26.7926 158.648 26.515 159.382 26.515C159.838 26.515 160.195 26.6142 160.492 26.8322C160.79 27.0503 160.948 27.3478 160.948 27.7245ZM160.115 27.7443C160.115 27.5659 160.036 27.4271 159.858 27.3279C159.679 27.2288 159.461 27.1693 159.204 27.1693C158.827 27.1693 158.47 27.2883 158.153 27.546C157.836 27.8038 157.617 28.1805 157.518 28.696C158.589 28.6762 159.322 28.5572 159.719 28.3589C159.977 28.2202 160.115 28.0219 160.115 27.7443Z" fill="white"/>
<path d="M165.548 26.7133L165.33 27.5262C164.993 27.427 164.656 27.3675 164.299 27.3675C163.783 27.3675 163.347 27.5658 163.05 27.9822C162.733 28.3787 162.574 28.8744 162.574 29.4097C162.574 29.9054 162.693 30.3218 162.911 30.639C163.129 30.9563 163.466 31.1149 163.882 31.1149C164.338 31.1149 164.814 30.9563 165.33 30.639L165.191 31.4123C164.834 31.7097 164.338 31.8683 163.704 31.8683C163.03 31.8683 162.514 31.6304 162.158 31.1545C161.84 30.7382 161.682 30.2028 161.682 29.5485C161.682 28.7554 161.94 28.0615 162.455 27.4865C162.97 26.9115 163.684 26.6339 164.576 26.6339C164.973 26.6141 165.29 26.6538 165.548 26.7133Z" fill="white"/>
<path d="M170.485 26.6935C170.485 27.1495 170.128 28.0219 169.394 29.3305C168.68 30.6391 168.244 31.452 168.145 31.7891C167.828 32.6615 167.55 33.2364 167.273 33.5338C166.936 33.8709 166.44 34.0494 165.746 34.0494L165.786 33.3157C166.242 33.3157 166.638 33.1373 166.995 32.8002C167.352 32.4632 167.53 32.0666 167.53 31.6503C167.53 31.1149 167.312 30.2624 166.876 29.0529C166.44 27.8435 166.222 27.09 166.222 26.7728L167.253 26.7133C167.253 27.1495 167.392 27.8633 167.669 28.8943C167.947 29.9055 168.086 30.5598 168.086 30.8572H168.145C168.165 30.6787 168.423 30.0641 168.898 28.9934C169.374 27.9426 169.632 27.1892 169.632 26.7728L170.485 26.6935Z" fill="white"/>
</svg>
