<svg width="171" height="39" viewBox="0 0 171 39" fill="none" xmlns="http://www.w3.org/2000/svg">
<g clip-path="url(#clip0)">
<path d="M37.8878 23.2969H35.3501V18.1022L36.9956 18.816C37.3129 18.9547 37.6896 18.7961 37.8283 18.4789C37.868 18.3996 37.8878 18.3203 37.8878 18.2211C37.8878 15.941 36.7974 13.7799 34.9536 12.4316L34.5967 10.0722C34.2596 7.85154 32.8123 5.96796 30.7504 5.03609L28.9463 0.812903C28.8471 0.574978 28.6092 0.436188 28.3713 0.436188H22.6614V1.70513H23.9303V2.26029L23.3156 4.71885C23.2363 5.05591 23.4346 5.4128 23.7716 5.49211C23.8311 5.51194 23.8708 5.51194 23.9303 5.51194H24.5647V6.78087C24.5647 7.11794 24.8224 7.39552 25.1595 7.41534L24.3466 9.45754C24.2276 9.75495 24.1483 10.0722 24.1285 10.3894L22.2649 12.6101L16.4558 15.3264L15.9403 15.1281L12.7483 13.5419L12.9268 13.0661L16.1783 13.7997C16.3765 13.8393 16.5748 13.7997 16.7136 13.6807L20.5202 10.5084C20.54 10.4886 20.5598 10.4886 20.5598 10.4687L22.1459 8.88255C22.9191 8.10929 22.9191 6.86018 22.1459 6.08692C21.3727 5.31367 20.1236 5.31367 19.3504 6.08692L18.8349 6.54295V6.16623C18.8349 5.82917 18.5574 5.53176 18.2005 5.53176C17.8436 5.53176 17.5661 5.80934 17.5661 6.16623V7.7524L15.6628 9.19979L12.8673 7.33603C13.0457 7.21707 13.1449 7.0188 13.1449 6.8007V5.53176H13.7793C14.1163 5.53176 14.4137 5.25418 14.4137 4.8973C14.4137 4.83781 14.4137 4.79816 14.3939 4.73868L13.7793 2.28011V1.72495H15.0482V0.456015H9.31843C9.06069 0.456015 8.8426 0.614632 8.74347 0.832731L6.9393 5.07574L5.05582 6.02744C3.78695 6.66191 3.09304 8.04981 3.35077 9.45754L3.80677 11.8765C1.70521 13.2842 0.43634 15.6634 0.43634 18.2211C0.43634 18.5582 0.713906 18.8556 1.07078 18.8556C1.16991 18.8556 1.26904 18.8358 1.34834 18.7961L4.75843 17.091L4.8179 17.4281L3.27147 19.3711C2.63704 20.1642 2.41895 21.215 2.69651 22.1866L4.16364 27.5796L2.51808 29.2252C2.41895 29.3243 2.35947 29.4631 2.33964 29.6019L1.72504 35.2923C1.72504 35.3121 1.72504 35.332 1.72504 35.3518V37.8897C1.72504 38.2267 2.0026 38.5241 2.35947 38.5241H13.1449C13.4819 38.5241 13.7793 38.2466 13.7793 37.8897C13.7793 37.6716 13.6603 37.4535 13.4621 37.3345L9.43738 35.0346L11.2217 27.877C11.2416 27.8175 11.2416 27.7778 11.2416 27.7183V17.7056L11.301 17.547L14.156 18.816C14.156 18.816 14.156 18.816 14.1758 18.816L16.1386 19.609C16.3765 19.7082 16.6343 19.7478 16.892 19.7478C17.5264 19.7478 18.1014 19.4702 18.4979 18.9746L24.8026 16.2583C24.8819 16.2186 24.9414 16.1789 25.0009 16.1195L25.6551 15.4652L26.4482 17.666L25.8137 27.6985C25.8137 27.758 25.8137 27.8175 25.8336 27.8968L27.6179 35.0544L23.5932 37.3543C23.2958 37.5328 23.1769 37.9095 23.3553 38.2267C23.4743 38.425 23.6725 38.544 23.9104 38.544H35.3302C35.6673 38.544 35.9647 38.2664 35.9647 37.9095C35.9647 37.85 35.9647 37.8104 35.9449 37.7509L35.3302 35.2923V31.5648H37.868C38.205 31.5648 38.5024 31.2872 38.5024 30.9303V23.9512C38.5222 23.5745 38.2447 23.2969 37.8878 23.2969ZM32.8123 23.2969V22.0279H34.0812V23.2969H32.8123ZM27.5386 16.9522L25.4965 11.3015C25.3379 10.8653 25.3379 10.3894 25.5163 9.95322L26.2103 8.1886L27.6972 8.56532C27.5782 11.4204 28.8075 14.1566 31.0478 15.941L31.1469 16.9522H27.5386ZM36.5396 17.2298L35.3501 16.7341V15.0686C35.3501 15.029 35.3501 15.0091 35.3501 14.9695L35.2708 14.4738C35.925 15.2669 36.3612 16.1988 36.5396 17.2298ZM33.3476 10.2705L34.0812 15.0884V20.759H32.7529L32.1779 14.3548C32.1779 14.335 32.1779 14.3152 32.1779 14.3152L31.5435 10.5084L30.2944 10.7265L30.8297 13.998C29.4816 12.4316 28.8075 10.3894 28.9859 8.32739L30.4729 6.34468C32.0193 7.09811 33.0701 8.58514 33.3476 10.2705ZM24.7431 4.26283L25.1793 2.51804C25.1991 2.45856 25.1991 2.4189 25.1991 2.35942V1.72495H27.9549L29.541 5.45246L28.1136 7.35586L27.0826 7.09811L28.1929 5.98779C28.4506 5.73004 28.4506 5.33349 28.1929 5.09557C27.9351 4.83781 27.5386 4.83781 27.3007 5.09557L26.2103 6.18606H25.8534V4.91712C25.8534 4.58006 25.5758 4.28265 25.2189 4.28265C25.1991 4.26283 24.7431 4.26283 24.7431 4.26283ZM11.0036 12.6497L9.7546 11.1428C9.97269 10.2903 10.052 9.43771 10.0123 8.56532L11.4993 8.1886L12.1932 9.95322C12.3716 10.3894 12.3716 10.8653 12.213 11.3015L11.6183 12.9471L11.0036 12.6497ZM20.2624 6.93949C20.54 6.66191 20.996 6.66191 21.2736 6.93949C21.5511 7.21707 21.5511 7.6731 21.2736 7.95068L20.1435 9.08082L19.1323 8.06964L20.2624 6.93949ZM16.0593 10.4886L18.1609 8.92221L19.1918 9.95322L16.1584 12.4514L13.3828 11.8368L13.4224 11.7377C13.6802 11.0041 13.6802 10.1911 13.3828 9.47737L13.2242 9.10065L15.3257 10.5084C15.5438 10.6472 15.8412 10.6472 16.0593 10.4886ZM9.7546 1.72495H12.5104V2.35942C12.5104 2.4189 12.5104 2.45856 12.5303 2.51804L12.9664 4.26283H12.5104C12.1734 4.26283 11.876 4.54041 11.876 4.8973V6.14641H11.4993L10.4089 5.05591C10.1511 4.79816 9.7546 4.79816 9.51669 5.05591C9.27877 5.31367 9.25895 5.71021 9.51669 5.94813L10.6269 7.05845L9.57616 7.33603L8.14869 5.43263L9.7546 1.72495ZM5.61095 7.13776L7.23669 6.32485L8.72364 8.30756C8.7633 8.82307 8.7633 9.33858 8.70382 9.87391L7.91077 8.94203L6.9393 9.75495L10.1115 13.5618C10.1709 13.6212 10.2304 13.6807 10.3097 13.7204L14.8103 15.9807L14.0965 17.4082L9.06069 15.1479L4.93686 11.0239L4.59982 9.19979C4.44121 8.36705 4.85756 7.53431 5.61095 7.13776ZM1.80434 17.1505C2.10173 15.3859 3.11286 13.8195 4.59982 12.8282L4.8179 12.6894L6.50312 14.3747C5.92817 14.9497 5.2739 15.4057 4.54034 15.7824L1.80434 17.1505ZM2.99391 37.2552V35.9863H3.43008L5.33338 37.2552H2.99391ZM6.42382 32.12L6.78069 35.3914V36.7L4.48086 35.1535L6.42382 32.12ZM8.06938 37.2552V35.9863H8.52538L10.7459 37.2552H8.06938ZM8.20817 34.7371H8.0099L7.53408 30.4941C7.53408 30.4545 7.53408 30.4347 7.53408 30.4148L8.60469 28.7097C8.66417 28.6106 8.70382 28.4916 8.70382 28.3726V22.6624H7.43495V28.1942L3.27147 34.7173H3.05338L3.58869 29.9192L5.33338 28.1744C5.49199 28.0157 5.55147 27.7778 5.49199 27.5597L3.92573 21.8297C3.76712 21.2349 3.88608 20.6202 4.26277 20.1444L5.80921 18.2211H9.95286V27.6589L8.20817 34.7371ZM6.04712 16.9522L5.94799 16.4367C6.46347 16.0996 6.95912 15.7031 7.3953 15.2669L8.24782 16.1195C8.3073 16.1789 8.36677 16.2186 8.44608 16.2384L9.99251 16.9324L6.04712 16.9522ZM17.6057 18.0427C17.4273 18.3996 16.9911 18.5582 16.6144 18.4194L15.2861 17.8841L15.98 16.4763L17.1894 16.9522C17.5859 17.1108 17.7842 17.5668 17.6256 17.9634C17.6057 18.003 17.6057 18.0229 17.6057 18.0427ZM24.2078 15.1479L18.9341 17.4082C18.8548 16.8332 18.5177 16.2979 18.0221 15.9807L22.9191 13.7204C22.9984 13.6807 23.0777 13.6212 23.1372 13.5419L24.4061 12.0351L25.1793 14.1566L24.2078 15.1479ZM27.6972 18.2211H31.2461L31.5435 21.4331V23.3167H29.0057C28.6687 23.3167 28.3713 23.5943 28.3713 23.9512V30.9303C28.3713 31.2674 28.6489 31.5648 29.0057 31.5648H29.9177L29.1445 34.7371H28.8669L27.1024 27.6985L27.6972 18.2211ZM30.2746 35.4311L31.0478 32.2389L32.6141 35.1535L30.2746 36.7199V35.4311ZM26.3094 37.2552L28.5299 35.9863H29.0057V37.2552H26.3094ZM31.7417 37.2552L33.645 35.9863H34.22L34.5372 37.2552H31.7417ZM34.0812 34.7371H33.8235L32.1184 31.5648H34.0812V34.7371ZM37.2534 30.2959H29.6402V27.1235H32.8123V29.0269H34.0812V27.1235H37.2534V30.2959ZM37.2534 25.8348H29.6402V24.5658H37.2534V25.8348Z" fill="#35A6CA"/>
<path d="M56.8613 15.8815C56.8613 19.1729 54.3038 20.8383 49.1688 20.8383C48.3361 20.8383 47.0078 20.8185 45.1838 20.759C45.3424 19.6884 45.6596 17.0513 46.1553 12.848C46.4526 10.0325 46.6113 7.63346 46.6509 5.63091H48.5542C48.8913 5.63091 49.4662 5.61109 50.3187 5.59126C51.1713 5.57143 51.8057 5.55161 52.2617 5.55161C53.6495 5.55161 54.7598 5.80936 55.5925 6.34469C56.4252 6.88002 56.8217 7.63346 56.8217 8.66447C56.8217 9.53686 56.5441 10.3101 56.0088 10.9842C55.4735 11.6584 54.7796 12.1144 53.9271 12.3127V12.4911C54.7003 12.6299 55.3942 12.967 55.9692 13.5419C56.564 14.1169 56.8613 14.8902 56.8613 15.8815ZM53.8874 16.0402C53.8874 14.6919 52.678 14.0178 50.2593 14.0178C49.7636 14.0178 49.2878 14.0376 48.8318 14.0773C48.6533 15.7031 48.5344 17.1901 48.4551 18.5582C48.7723 18.6177 49.1887 18.6573 49.6843 18.6573C51.1911 18.6573 52.2815 18.4392 52.916 18.0229C53.5504 17.6065 53.8874 16.9324 53.8874 16.0402ZM53.7487 9.51703C53.7487 8.34723 52.9953 7.75242 51.4687 7.75242C50.7153 7.75242 50.0015 7.8119 49.3473 7.93086C49.3473 8.2481 49.2481 9.59634 49.03 11.9558C49.3869 11.9756 49.7041 11.9756 50.0213 11.9756C52.4996 11.9756 53.7487 11.1627 53.7487 9.51703Z" fill="#045771"/>
<path d="M62.6704 9.4972C62.6704 9.7153 62.5911 10.5084 62.4127 11.8765C62.2343 13.2445 62.0955 14.3747 61.9963 15.2471C61.8179 16.8531 61.6791 18.697 61.5602 20.759L58.6061 20.878C58.7647 19.8668 59.0026 17.9832 59.3396 15.2471C59.4983 13.7799 59.5776 12.392 59.5776 11.123C59.5776 10.6075 59.5577 10.1713 59.5379 9.83426L62.6704 9.4972ZM63.5626 5.98779C63.5626 6.58261 63.3445 7.11794 62.9282 7.53431C62.5118 7.95068 61.9963 8.1886 61.3817 8.1886C60.9059 8.1886 60.549 8.04981 60.2913 7.75241C60.0336 7.455 59.9146 7.09811 59.9146 6.66191C59.9146 6.04727 60.1327 5.53177 60.549 5.1154C60.9654 4.69903 61.4809 4.48093 62.0955 4.48093C63.067 4.50075 63.5626 4.99643 63.5626 5.98779Z" fill="#045771"/>
<path d="M73.1583 9.7153L72.742 11.8765C72.286 12.2928 71.3145 13.4428 69.7879 15.3066C68.2613 17.1703 67.5079 18.241 67.5079 18.5384V18.7168C69.1733 18.7168 70.8189 18.6375 72.4644 18.4987L72.167 20.759H63.8203L64.2168 18.5979C64.6331 18.241 65.6443 17.1108 67.2502 15.2074C68.8561 13.304 69.6689 12.2135 69.6689 11.9359V11.7575C67.9242 11.7575 66.3183 11.817 64.8512 11.9359L65.1486 9.7153H73.1583V9.7153Z" fill="#045771"/>
<path d="M91.2397 5.63092C90.982 7.83173 90.863 10.5877 90.863 13.8988C90.863 16.0798 90.9225 18.3599 91.0415 20.759H87.7305C87.7305 17.547 87.9684 13.3635 88.4244 8.18862H88.246C88.127 8.6843 87.8891 9.45756 87.4926 10.5679C87.0961 11.6782 86.3625 13.5023 85.2126 16.0997C84.0825 18.697 83.4679 20.2435 83.4282 20.759H80.9103C80.9103 20.1444 80.6129 18.5384 80.038 15.9212C79.463 13.304 79.1062 11.6187 78.9872 10.8455C78.8682 10.0722 78.7691 9.17998 78.67 8.18862H78.4915C78.3924 9.08084 78.0752 11.3015 77.5399 14.8505C77.0046 18.3996 76.7469 20.3823 76.7469 20.759H73.7531C73.7531 20.5409 74.2488 18.1419 75.2599 13.5618C76.271 8.98171 76.8063 6.32487 76.9055 5.63092H81.0888C81.0888 6.70159 81.3663 8.60499 81.9413 11.3808C82.5162 14.1566 82.7938 16.0402 82.7938 17.0514H82.9722C83.0515 16.2979 83.7256 14.3747 84.9945 11.3015C86.2634 8.22828 86.9375 6.32487 86.9969 5.63092H91.2397V5.63092Z" fill="#045771"/>
<path d="M103.928 9.1998C103.314 13.4032 102.997 16.2979 102.997 17.9039C102.997 18.7168 103.056 19.6289 103.195 20.6401L100.34 20.9573C100.3 20.3228 100.261 19.5694 100.261 18.7168H100.082C99.2296 20.2832 97.9409 21.0763 96.2557 21.0763C95.2842 21.0763 94.5507 20.7194 94.055 19.9858C93.5594 19.2522 93.3016 18.2608 93.3016 16.9919C93.3016 15.1678 93.9361 13.5221 95.2248 12.0549C96.4936 10.5877 98.4961 9.81444 101.192 9.75496L101.708 9.39807L103.928 9.1998ZM100.955 11.5791C99.3288 11.5989 98.1392 12.0747 97.3858 12.9868C96.6324 13.8988 96.2557 15.1678 96.2557 16.7539C96.2557 18.1815 96.7117 18.8953 97.6039 18.8953C98.2978 18.8953 98.9323 18.3798 99.527 17.3686C100.102 16.3574 100.479 15.3859 100.637 14.454C100.776 13.5419 100.895 12.5704 100.955 11.5791Z" fill="#045771"/>
<path d="M112.692 9.83425L112.374 12.154C111.284 12.1144 110.392 12.0747 109.698 12.0747C109.381 14.1764 109.202 15.7427 109.202 16.7738C109.202 17.547 109.281 18.0823 109.46 18.3599C109.638 18.6375 109.936 18.7961 110.372 18.7961C111.046 18.7961 111.78 18.5582 112.553 18.0823L112.156 20.2039C111.462 20.759 110.59 21.0366 109.559 21.0366C108.469 21.0366 107.676 20.759 107.22 20.2237C106.764 19.6883 106.526 18.7763 106.526 17.5074C106.526 16.5557 106.724 14.7712 107.101 12.1144C106.724 12.1144 106.189 12.1342 105.515 12.1937L105.832 9.91356C106.427 9.95321 106.962 9.99287 107.438 9.99287C107.517 9.45754 107.676 8.36704 107.933 6.76104L110.511 6.42398C110.372 7.15759 110.193 8.34721 109.956 9.99287C110.59 9.91356 111.502 9.89373 112.692 9.83425Z" fill="#045771"/>
<path d="M124.369 12.1342C124.369 14.4342 121.891 15.6436 116.914 15.7427C116.914 16.7738 117.113 17.5272 117.489 18.0427C117.866 18.5582 118.54 18.7961 119.472 18.7961C120.721 18.7961 122.03 18.3996 123.457 17.6065L123.1 19.9064C121.95 20.7194 120.483 21.1159 118.719 21.1159C117.132 21.1159 115.963 20.6401 115.209 19.6884C114.456 18.7366 114.079 17.4875 114.079 15.9212C114.079 13.8988 114.714 12.273 115.983 11.0635C117.251 9.85408 118.758 9.23944 120.483 9.23944C121.692 9.23944 122.624 9.49719 123.298 9.99287C124.012 10.4687 124.369 11.1825 124.369 12.1342ZM121.772 12.3523C121.772 11.5989 121.197 11.2222 120.047 11.2222C119.393 11.2222 118.758 11.4601 118.183 11.9558C117.588 12.4316 117.212 13.1256 117.033 14.0376C120.186 13.9781 121.772 13.423 121.772 12.3523Z" fill="#045771"/>
<path d="M49.1887 28.1408C49.1887 28.4184 49.149 28.9736 49.0697 29.8261C48.9904 30.6787 48.9507 31.3132 48.9507 31.7097L48.0586 31.7692C48.0586 31.6106 48.118 31.1149 48.2172 30.2822C48.3163 29.4494 48.3758 28.815 48.3758 28.3986C48.3758 27.9822 48.2965 27.7046 48.1577 27.546C48.0189 27.3874 47.781 27.3081 47.4638 27.3081C47.0871 27.3081 46.7104 27.5659 46.3733 28.0615C46.0165 28.5572 45.8182 29.1124 45.7587 29.7072C45.6794 30.4804 45.62 31.1546 45.5803 31.7295L44.7278 31.789C44.9657 29.9848 45.0847 28.7555 45.0847 28.121C45.0847 27.7641 45.0648 27.3081 45.0053 26.7728L45.8975 26.634C45.9173 26.9314 45.9372 27.3478 45.9372 27.8434H45.9768C46.4328 26.9909 47.0474 26.5745 47.8405 26.5745C48.7327 26.5745 49.1887 27.09 49.1887 28.1408Z" fill="#045771"/>
<path d="M55.0372 28.7951C55.0372 29.6279 54.7795 30.3615 54.2838 30.9761C53.7882 31.5908 53.1141 31.908 52.2814 31.908C51.7262 31.908 51.2702 31.6899 50.8737 31.2537C50.4772 30.8175 50.2789 30.2425 50.2789 29.5486C50.2789 28.7158 50.5367 28.0021 51.0323 27.4072C51.528 26.8124 52.2021 26.515 53.0546 26.515C53.6097 26.515 54.0856 26.7133 54.4622 27.1297C54.8389 27.546 55.0372 28.1012 55.0372 28.7951ZM54.145 28.9538C54.145 28.4581 54.0261 28.0417 53.808 27.7046C53.5899 27.3676 53.2727 27.1891 52.8563 27.1891C52.3408 27.1891 51.9245 27.4271 51.6073 27.9227C51.2901 28.4184 51.1513 28.9339 51.1513 29.5089C51.1513 30.0046 51.2702 30.421 51.4883 30.758C51.7064 31.1149 52.0435 31.2735 52.4598 31.2735C52.9753 31.2735 53.3916 31.0356 53.689 30.5399C53.9864 30.0442 54.145 29.5089 54.145 28.9538Z" fill="#045771"/>
<path d="M60.5886 26.634C60.3507 28.577 60.2317 29.8658 60.2317 30.5003C60.2317 30.8571 60.2516 31.2537 60.3111 31.6899L59.4189 31.8287C59.3991 31.5313 59.3792 31.1149 59.3792 30.6192H59.3396C58.8836 31.4718 58.269 31.8882 57.4759 31.8882C56.5639 31.8882 56.1079 31.3727 56.1079 30.3416C56.1079 30.0641 56.1476 29.5089 56.2269 28.6563C56.3062 27.8038 56.3458 27.1891 56.3458 26.7728L57.2578 26.6736C57.2578 26.8322 57.1983 27.3279 57.0992 28.1805C57.0001 29.0331 56.9406 29.6675 56.9406 30.1037C56.9406 30.5201 57.0199 30.7977 57.1587 30.9563C57.2975 31.1149 57.5354 31.1942 57.8526 31.1942C58.2293 31.1942 58.606 30.9365 58.943 30.4408C59.2801 29.9451 59.4982 29.3899 59.5577 28.7951C59.637 27.9426 59.6766 27.2684 59.6766 26.7926L60.5886 26.634Z" fill="#045771"/>
<path d="M65.3865 26.7133L65.1684 27.5262C64.8314 27.4271 64.4943 27.3676 64.1374 27.3676C63.622 27.3676 63.1858 27.5658 62.8884 27.9822C62.5712 28.3788 62.4126 28.8744 62.4126 29.4098C62.4126 29.9054 62.5315 30.3218 62.7496 30.6391C62.9677 30.9563 63.3047 31.1149 63.7211 31.1149C64.1771 31.1149 64.6529 30.9563 65.1684 30.6391L65.0296 31.4123C64.6727 31.7097 64.1771 31.8683 63.5427 31.8683C62.8686 31.8683 62.3531 31.6304 61.9962 31.1546C61.679 30.7382 61.5204 30.2029 61.5204 29.5486C61.5204 28.7555 61.7781 28.0615 62.2936 27.4865C62.8091 26.9116 63.5228 26.634 64.415 26.634C64.8314 26.6141 65.1486 26.6538 65.3865 26.7133Z" fill="#045771"/>
<path d="M70.7395 26.7133C70.7395 26.8322 70.5015 27.1296 70.0059 27.6253C69.5102 28.121 69.1335 28.4779 68.856 28.6762V28.7356C69.2128 29.1718 69.5499 29.727 69.8275 30.4011C70.1249 31.0752 70.2636 31.5114 70.2636 31.7097L69.312 31.7692C69.312 31.6106 69.2129 31.2735 69.0344 30.758C68.856 30.2425 68.5982 29.727 68.281 29.271C68.0035 29.5287 67.7259 29.8658 67.4483 30.302C67.1708 30.7382 67.0121 31.214 66.9725 31.7295L66.0803 31.789C66.1398 31.452 66.2389 30.639 66.3975 29.3503C66.4768 28.6563 66.5165 28.002 66.5165 27.427C66.5165 27.1891 66.5165 26.971 66.4967 26.8124L67.4483 26.6736C67.4483 26.8521 67.4087 27.2883 67.3294 27.9624C67.2501 28.6365 67.1708 29.3305 67.0915 30.0046H67.1509C67.2897 29.6675 67.7457 29.0727 68.5189 28.2201C69.2922 27.3676 69.6887 26.8719 69.6887 26.6934L70.7395 26.7133Z" fill="#045771"/>
<path d="M77.9959 28.1408C77.9959 28.4184 77.9562 28.9736 77.8769 29.8261C77.7976 30.6787 77.758 31.3132 77.758 31.7097L76.8658 31.7692C76.8658 31.6106 76.9253 31.1149 77.0244 30.2822C77.1236 29.4494 77.183 28.815 77.183 28.3986C77.183 27.9822 77.1037 27.7046 76.9649 27.546C76.8262 27.3874 76.5882 27.3081 76.271 27.3081C75.8943 27.3081 75.5176 27.5659 75.1806 28.0615C74.8237 28.5572 74.6255 29.1124 74.566 29.7072C74.4867 30.4804 74.4272 31.1546 74.3876 31.7295L73.535 31.789C73.7729 29.9848 73.8919 28.7555 73.8919 28.121C73.8919 27.7641 73.8721 27.3081 73.8126 26.7728L74.7048 26.634C74.7246 26.9314 74.7444 27.3478 74.7444 27.8434H74.7841C75.2401 26.9909 75.8547 26.5745 76.6477 26.5745C77.5399 26.5745 77.9959 27.09 77.9959 28.1408Z" fill="#045771"/>
<path d="M83.2895 26.515C82.9723 28.2796 82.8137 29.5684 82.8137 30.3813C82.8137 30.7382 82.8533 31.1744 82.9128 31.6701L82.0207 31.8089C82.0008 31.4916 81.981 31.1149 81.981 30.6391H81.9413C81.5052 31.452 80.9104 31.8485 80.1966 31.8485C79.7803 31.8485 79.4631 31.6899 79.2252 31.3528C79.0071 31.0158 78.8881 30.5796 78.8881 30.0443C78.8881 29.1719 79.1855 28.4184 79.8001 27.7641C80.4147 27.1098 81.2871 26.7926 82.437 26.7728L82.6749 26.6142L83.2895 26.515ZM82.3379 27.3478C81.4457 27.3676 80.8113 27.6055 80.3949 28.0814C79.9984 28.5374 79.7803 29.1719 79.7803 29.9253C79.7803 30.7184 80.038 31.1149 80.5733 31.1149C80.95 31.1149 81.2871 30.8572 81.5845 30.3218C81.9017 29.7865 82.0801 29.3106 82.1594 28.8744C82.2586 28.4383 82.318 27.9227 82.3379 27.3478Z" fill="#045771"/>
<path d="M89.039 28.5969C89.039 29.5486 88.8011 30.3218 88.3252 30.9365C87.8494 31.5511 87.1952 31.8485 86.3823 31.8485C85.8272 31.8485 85.4306 31.7296 85.1729 31.5115H85.1332C85.0341 32.483 84.9548 33.3356 84.8953 34.0493L83.9635 34.1088C84.3997 30.8968 84.6178 28.8348 84.6178 27.9624C84.6178 27.6253 84.5979 27.2288 84.5385 26.7728L85.4306 26.634C85.4505 26.9314 85.4703 27.3279 85.4703 27.8434H85.5099C85.9659 26.9909 86.6004 26.5745 87.3934 26.5745C87.8891 26.5745 88.2856 26.7529 88.6028 27.1297C88.8804 27.4865 89.039 27.9822 89.039 28.5969ZM88.1468 28.9141C88.1468 27.8434 87.7701 27.3081 87.0167 27.3081C86.64 27.3081 86.2633 27.546 85.9065 28.0219C85.5496 28.4977 85.3315 29.0529 85.272 29.6874L85.1729 30.877C85.5099 31.0753 85.847 31.1744 86.1642 31.1744C86.8383 31.1744 87.3339 30.9563 87.6512 30.5399C87.9684 30.1236 88.1468 29.5882 88.1468 28.9141Z" fill="#045771"/>
<path d="M89.9907 31.7692C90.2286 29.9649 90.3476 28.7555 90.3476 28.1012C90.3476 27.7443 90.3278 27.2883 90.2683 26.7529L91.1605 26.6141C91.1803 26.8719 91.2001 27.2684 91.2001 27.8236H91.2398C91.7354 26.971 92.35 26.5547 93.0439 26.5547C93.7775 26.5547 94.1344 26.971 94.1344 27.8236H94.174C94.6697 26.971 95.2843 26.5547 95.9782 26.5547C96.4144 26.5547 96.7117 26.6736 96.8704 26.9314C97.029 27.1891 97.1083 27.546 97.1083 28.0417C97.1083 28.3788 97.0686 28.9537 96.9893 29.7865C96.91 30.6192 96.8704 31.2537 96.8704 31.6701L95.9584 31.7295C95.9584 31.5908 96.0178 31.0951 96.117 30.2425C96.2161 29.3899 96.2756 28.815 96.2756 28.5175C96.2756 28.0417 96.2161 27.7245 96.117 27.546C96.0178 27.3676 95.8592 27.2883 95.6411 27.2883C95.2446 27.2883 94.8679 27.546 94.5309 28.0615C94.1938 28.577 94.0154 29.1124 93.9559 29.6675C93.8766 30.421 93.837 31.0951 93.837 31.6899L92.925 31.7494C92.925 31.5908 92.9845 31.0951 93.1034 30.2227C93.2224 29.3503 93.2818 28.7951 93.2818 28.5374C93.2818 28.0615 93.2224 27.7245 93.1232 27.546C93.0241 27.3676 92.8655 27.2883 92.6672 27.2883C92.2707 27.2883 91.9138 27.546 91.5768 28.0615C91.2398 28.577 91.0415 29.1124 90.982 29.6675C90.9027 30.5201 90.8432 31.1942 90.8036 31.6899L89.9907 31.7692Z" fill="#045771"/>
<path d="M102.679 26.6538C102.679 26.9512 102.62 27.7046 102.481 28.9736C102.362 30.1236 102.283 31.0356 102.263 31.7296L101.371 31.789C101.371 31.6701 101.411 31.333 101.51 30.7977C101.589 30.2623 101.668 29.727 101.708 29.2313H101.648C101.629 29.4098 101.51 29.4891 101.292 29.4891C101.192 29.4891 100.935 29.4891 100.518 29.4693C100.102 29.4494 99.8443 29.4494 99.765 29.4494C99.527 29.4494 99.3883 29.5486 99.3288 29.7667C99.2495 30.0046 99.19 30.6589 99.1107 31.7494L98.2383 31.8089C98.2978 31.4718 98.397 30.6589 98.5556 29.3701C98.6349 28.6762 98.6745 28.0219 98.6745 27.4469C98.6745 27.209 98.6745 26.9909 98.6547 26.8124L99.527 26.6935C99.527 26.8521 99.4676 27.6253 99.3486 28.9934H99.4081C99.4477 28.815 99.5667 28.7357 99.8046 28.7357C99.9037 28.7357 100.142 28.7357 100.558 28.7555C100.974 28.7753 101.232 28.7753 101.331 28.7753C101.609 28.7753 101.767 28.6167 101.827 28.2796C101.827 28.24 101.847 27.9624 101.847 27.4469C101.847 27.209 101.827 26.9909 101.807 26.8124L102.679 26.6538Z" fill="#045771"/>
<path d="M108.013 27.7245C108.013 28.2003 107.795 28.5572 107.358 28.7951C106.803 29.1124 105.852 29.271 104.523 29.3106C104.523 29.9451 104.622 30.4011 104.84 30.6787C105.059 30.9563 105.415 31.0951 105.931 31.0951C106.427 31.0951 106.982 30.9166 107.576 30.5597L107.457 31.3528C106.982 31.6899 106.407 31.8683 105.713 31.8683C104.999 31.8683 104.484 31.6502 104.147 31.2339C103.809 30.7977 103.651 30.2623 103.651 29.608C103.651 28.6365 103.928 27.8831 104.503 27.3477C105.059 26.8124 105.713 26.5348 106.446 26.5348C106.902 26.5348 107.259 26.634 107.557 26.8521C107.854 27.0702 108.013 27.3477 108.013 27.7245ZM107.18 27.7443C107.18 27.5658 107.101 27.427 106.922 27.3279C106.744 27.2288 106.526 27.1693 106.268 27.1693C105.891 27.1693 105.534 27.2883 105.217 27.546C104.9 27.8038 104.682 28.1805 104.583 28.696C105.653 28.6762 106.387 28.5572 106.783 28.3589C107.041 28.2201 107.18 28.0219 107.18 27.7443Z" fill="#045771"/>
<path d="M113.584 28.5969C113.584 29.5486 113.346 30.3218 112.87 30.9365C112.394 31.5511 111.74 31.8485 110.927 31.8485C110.372 31.8485 109.975 31.7296 109.718 31.5115H109.678C109.579 32.483 109.5 33.3356 109.44 34.0493L108.508 34.1088C108.945 30.8968 109.163 28.8348 109.163 27.9624C109.163 27.6253 109.143 27.2288 109.083 26.7728L109.975 26.634C109.995 26.9314 110.015 27.3279 110.015 27.8434H110.055C110.511 26.9909 111.145 26.5745 111.938 26.5745C112.434 26.5745 112.83 26.7529 113.148 27.1297C113.425 27.4865 113.584 27.9822 113.584 28.5969ZM112.692 28.9141C112.692 27.8434 112.315 27.3081 111.562 27.3081C111.185 27.3081 110.808 27.546 110.451 28.0219C110.094 28.4977 109.876 29.0529 109.817 29.6874L109.718 30.877C110.055 31.0753 110.392 31.1744 110.709 31.1744C111.383 31.1744 111.879 30.9563 112.196 30.5399C112.513 30.1236 112.692 29.5882 112.692 28.9141Z" fill="#045771"/>
<path d="M118.699 26.515C118.382 28.2796 118.223 29.5684 118.223 30.3813C118.223 30.7382 118.263 31.1744 118.322 31.6701L117.43 31.8089C117.41 31.4916 117.391 31.1149 117.391 30.6391H117.371C116.935 31.452 116.34 31.8485 115.626 31.8485C115.21 31.8485 114.892 31.6899 114.655 31.3528C114.436 31.0158 114.318 30.5796 114.318 30.0443C114.318 29.1719 114.615 28.4184 115.23 27.7641C115.844 27.1098 116.716 26.7926 117.866 26.7728L118.104 26.6142L118.699 26.515ZM117.747 27.3478C116.855 27.3676 116.221 27.6055 115.804 28.0814C115.408 28.5374 115.19 29.1719 115.19 29.9253C115.19 30.7184 115.448 31.1149 115.983 31.1149C116.36 31.1149 116.697 30.8572 116.994 30.3218C117.311 29.7865 117.49 29.3106 117.569 28.8744C117.668 28.4383 117.728 27.9227 117.747 27.3478Z" fill="#045771"/>
<path d="M126.332 28.1408C126.332 28.4184 126.292 28.9736 126.213 29.8261C126.134 30.6787 126.094 31.3132 126.094 31.7097L125.202 31.7692C125.202 31.6106 125.261 31.1149 125.361 30.2822C125.46 29.4494 125.519 28.815 125.519 28.3986C125.519 27.9822 125.44 27.7046 125.301 27.546C125.162 27.3874 124.924 27.3081 124.607 27.3081C124.23 27.3081 123.854 27.5659 123.517 28.0615C123.16 28.5572 122.962 29.1124 122.902 29.7072C122.823 30.4804 122.763 31.1546 122.724 31.7295L121.871 31.789C122.109 29.9848 122.228 28.7555 122.228 28.121C122.228 27.7641 122.208 27.3081 122.149 26.7728L123.041 26.634C123.061 26.9314 123.081 27.3478 123.081 27.8434H123.12C123.576 26.9909 124.191 26.5745 124.984 26.5745C125.876 26.5745 126.332 27.09 126.332 28.1408Z" fill="#045771"/>
<path d="M132.181 28.7951C132.181 29.6279 131.923 30.3615 131.427 30.9761C130.932 31.5908 130.257 31.908 129.425 31.908C128.87 31.908 128.414 31.6899 128.017 31.2537C127.621 30.8175 127.422 30.2425 127.422 29.5486C127.422 28.7158 127.68 28.0021 128.176 27.4072C128.671 26.8124 129.345 26.515 130.198 26.515C130.753 26.515 131.229 26.7133 131.606 27.1297C131.982 27.546 132.181 28.1012 132.181 28.7951ZM131.288 28.9538C131.288 28.4581 131.169 28.0417 130.951 27.7046C130.733 27.3676 130.416 27.1891 130 27.1891C129.484 27.1891 129.068 27.4271 128.751 27.9227C128.433 28.4184 128.295 28.9339 128.295 29.5089C128.295 30.0046 128.414 30.421 128.632 30.758C128.85 31.1149 129.187 31.2735 129.603 31.2735C130.119 31.2735 130.535 31.0356 130.832 30.5399C131.13 30.0442 131.288 29.5089 131.288 28.9538Z" fill="#045771"/>
<path d="M140.389 24.2745L140.25 25.1271C140.052 25.1469 139.615 25.2064 138.902 25.3055C138.228 25.4047 137.772 25.5038 137.514 25.603C137.157 25.7616 136.88 26.0193 136.681 26.3762C136.483 26.7529 136.305 27.3279 136.166 28.1607H136.205C136.761 27.2684 137.494 26.8124 138.446 26.8124C138.941 26.8124 139.358 26.9909 139.675 27.3676C139.992 27.7443 140.151 28.2201 140.151 28.8348C140.151 29.727 139.893 30.4606 139.358 31.0356C138.822 31.6106 138.148 31.908 137.296 31.908C136.642 31.908 136.146 31.6899 135.829 31.2339C135.512 30.7778 135.353 30.2425 135.353 29.6279C135.353 28.5572 135.512 27.5658 135.849 26.6934C136.186 25.8211 136.562 25.2659 136.998 25.0478C137.514 24.79 138.208 24.5918 139.08 24.4728C139.536 24.4133 139.972 24.3538 140.389 24.2745ZM139.298 29.0132C139.298 28.577 139.199 28.24 138.981 27.9624C138.783 27.6848 138.485 27.546 138.109 27.546C137.554 27.546 137.117 27.7641 136.741 28.2201C136.384 28.6563 136.205 29.152 136.205 29.7072C136.205 30.1235 136.305 30.4804 136.523 30.7977C136.741 31.1149 137.038 31.2735 137.395 31.2735C138.01 31.2735 138.466 31.0554 138.803 30.5994C139.14 30.1434 139.298 29.608 139.298 29.0132Z" fill="#045771"/>
<path d="M145.682 26.634C145.444 28.577 145.325 29.8658 145.325 30.5003C145.325 30.8571 145.345 31.2537 145.405 31.6899L144.512 31.8287C144.493 31.5313 144.473 31.1149 144.473 30.6192H144.433C143.977 31.4718 143.362 31.8882 142.569 31.8882C141.657 31.8882 141.201 31.3727 141.201 30.3416C141.201 30.0641 141.241 29.5089 141.32 28.6563C141.4 27.8038 141.439 27.1891 141.439 26.7728L142.351 26.6736C142.351 26.8322 142.292 27.3279 142.193 28.1805C142.094 29.0331 142.034 29.6675 142.034 30.1037C142.034 30.5201 142.113 30.7977 142.252 30.9563C142.391 31.1149 142.629 31.1942 142.946 31.1942C143.323 31.1942 143.7 30.9365 144.037 30.4408C144.393 29.9451 144.592 29.3899 144.651 28.7951C144.73 27.9426 144.77 27.2684 144.77 26.7926L145.682 26.634Z" fill="#045771"/>
<path d="M150.242 27.7046C150.242 28.2994 149.945 28.7158 149.35 28.9736V29.033C149.885 29.2313 150.163 29.608 150.163 30.183C150.163 30.7184 149.945 31.1347 149.529 31.4321C149.112 31.7295 148.577 31.8683 147.943 31.8683C147.348 31.8683 146.812 31.7494 146.356 31.4916L146.515 30.7778C146.971 31.0554 147.467 31.1942 148.002 31.1942C148.914 31.1942 149.35 30.877 149.35 30.2227C149.35 29.727 148.874 29.4692 147.943 29.4692C147.645 29.4692 147.368 29.4891 147.149 29.5089L147.308 28.8149C147.546 28.8348 147.784 28.8546 147.982 28.8546C148.359 28.8546 148.696 28.7753 148.993 28.6167C149.291 28.4581 149.449 28.2201 149.449 27.9029C149.449 27.4865 149.092 27.2883 148.359 27.2883C147.903 27.2883 147.427 27.427 146.912 27.6848L147.05 26.9512C147.407 26.7133 147.923 26.5943 148.537 26.5943C149.013 26.5943 149.41 26.6934 149.747 26.8917C150.084 27.09 150.242 27.3279 150.242 27.7046Z" fill="#045771"/>
<path d="M155.635 26.6538C155.635 26.9512 155.575 27.7046 155.437 28.9736C155.318 30.1236 155.238 31.0356 155.219 31.7296L154.326 31.789C154.326 31.6701 154.366 31.333 154.465 30.7977C154.544 30.2623 154.624 29.727 154.663 29.2313H154.604C154.584 29.4098 154.465 29.4891 154.247 29.4891C154.148 29.4891 153.89 29.4891 153.474 29.4693C153.057 29.4494 152.8 29.4494 152.72 29.4494C152.483 29.4494 152.344 29.5486 152.284 29.7667C152.205 30.0046 152.146 30.6589 152.066 31.7494L151.194 31.8089C151.253 31.4718 151.352 30.6589 151.511 29.3701C151.59 28.6762 151.63 28.0219 151.63 27.4469C151.63 27.209 151.63 26.9909 151.61 26.8124L152.483 26.6935C152.483 26.8521 152.423 27.6253 152.304 28.9934H152.364C152.403 28.815 152.522 28.7357 152.76 28.7357C152.859 28.7357 153.097 28.7357 153.513 28.7555C153.93 28.7753 154.188 28.7753 154.287 28.7753C154.564 28.7753 154.723 28.6167 154.782 28.2796C154.782 28.24 154.802 27.9624 154.802 27.4469C154.802 27.209 154.782 26.9909 154.763 26.8124L155.635 26.6538Z" fill="#045771"/>
<path d="M160.948 27.7245C160.948 28.2003 160.73 28.5572 160.294 28.7951C159.739 29.1124 158.787 29.271 157.459 29.3106C157.459 29.9451 157.558 30.4011 157.776 30.6787C157.994 30.9563 158.351 31.0951 158.886 31.0951C159.382 31.0951 159.937 30.9166 160.532 30.5598L160.393 31.333C159.917 31.6701 159.342 31.8485 158.648 31.8485C157.935 31.8485 157.419 31.6304 157.082 31.2141C156.745 30.7779 156.587 30.2425 156.587 29.5882C156.587 28.6167 156.864 27.8633 157.439 27.3279C157.994 26.7926 158.648 26.515 159.382 26.515C159.838 26.515 160.195 26.6142 160.492 26.8322C160.79 27.0503 160.948 27.3478 160.948 27.7245ZM160.116 27.7443C160.116 27.5659 160.036 27.4271 159.858 27.3279C159.679 27.2288 159.461 27.1693 159.204 27.1693C158.827 27.1693 158.47 27.2883 158.153 27.546C157.836 27.8038 157.617 28.1805 157.518 28.696C158.589 28.6762 159.323 28.5572 159.719 28.3589C159.977 28.2202 160.116 28.0219 160.116 27.7443Z" fill="#045771"/>
<path d="M165.548 26.7133L165.33 27.5262C164.993 27.4271 164.656 27.3676 164.299 27.3676C163.783 27.3676 163.347 27.5658 163.05 27.9822C162.733 28.3788 162.574 28.8744 162.574 29.4098C162.574 29.9054 162.693 30.3218 162.911 30.6391C163.129 30.9563 163.466 31.1149 163.882 31.1149C164.338 31.1149 164.814 30.9563 165.33 30.6391L165.191 31.4123C164.834 31.7097 164.338 31.8683 163.704 31.8683C163.03 31.8683 162.514 31.6304 162.158 31.1546C161.84 30.7382 161.682 30.2029 161.682 29.5486C161.682 28.7555 161.94 28.0615 162.455 27.4865C162.97 26.9116 163.684 26.634 164.576 26.634C164.973 26.6141 165.29 26.6538 165.548 26.7133Z" fill="#045771"/>
<path d="M170.485 26.6935C170.485 27.1495 170.128 28.0219 169.394 29.3305C168.681 30.6391 168.244 31.452 168.145 31.789C167.828 32.6614 167.55 33.2364 167.273 33.5338C166.936 33.8709 166.44 34.0493 165.746 34.0493L165.786 33.3157C166.242 33.3157 166.638 33.1373 166.995 32.8002C167.352 32.4631 167.531 32.0666 167.531 31.6502C167.531 31.1149 167.313 30.2623 166.876 29.0529C166.44 27.8434 166.222 27.09 166.222 26.7728L167.253 26.7133C167.253 27.1495 167.392 27.8633 167.669 28.8943C167.947 29.9054 168.086 30.5597 168.086 30.8572H168.145C168.165 30.6787 168.423 30.0641 168.899 28.9934C169.374 27.9426 169.632 27.1891 169.632 26.7728L170.485 26.6935Z" fill="#045771"/>
</g>
<defs>
<clipPath id="clip0">
<rect x="0.00012207" width="171" height="39" fill="white"/>
</clipPath>
</defs>
</svg>
