<?xml version="1.0" encoding="utf-8"?>
<!-- Generator: Adobe Illustrator 22.0.1, SVG Export Plug-In . SVG Version: 6.00 Build 0)  -->
<svg version="1.1" id="Bold" xmlns="http://www.w3.org/2000/svg" xmlns:xlink="http://www.w3.org/1999/xlink" x="0px" y="0px"
	 viewBox="0 0 50 50" style="enable-background:new 0 0 50 50;" xml:space="preserve">
<style type="text/css">
	.st0{fill:#2E7990;}
</style>
<path class="st0" d="M25,50c13.8,0,25-11.2,25-25S38.8,0,25,0S0,11.2,0,25S11.2,50,25,50z M11.4,24.5l24.1-9.3
	c1.1-0.4,2.1,0.3,1.7,2l0,0l-4.1,19.3c-0.3,1.4-1.1,1.7-2.3,1.1l-6.3-4.6l-3,2.9c-0.3,0.3-0.6,0.6-1.3,0.6l0.4-6.4l11.6-10.5
	c0.5-0.4-0.1-0.7-0.8-0.3l-14.3,9l-6.2-1.9C9.8,26,9.8,25.1,11.4,24.5L11.4,24.5z"/>
</svg>
