<?xml version="1.0" encoding="utf-8"?>
<!-- Generator: Adobe Illustrator 22.0.1, SVG Export Plug-In . SVG Version: 6.00 Build 0)  -->
<svg version="1.1" id="Слой_1" xmlns="http://www.w3.org/2000/svg" xmlns:xlink="http://www.w3.org/1999/xlink" x="0px" y="0px"
	 viewBox="0 0 50 50" style="enable-background:new 0 0 50 50;" xml:space="preserve">
<style type="text/css">
	.st0{fill:#2E7990;}
</style>
<path class="st0" d="M26.9,28.6c0,0,0.9,0.1,1.4-0.5l0.9-1.2c0.4-0.6,1.5-1,2.6-0.4c1.4,0.8,3.2,2,4.5,3.2c0.7,0.6,0.8,1.4,0.4,2.3
	l0,0c-0.5,0.8-1.1,1.6-1.9,2.4l0,0c-0.9,0.8-2,1.2-3.1,0.8l0,0c-2-0.6-6.9-3-10-5.5c-5.1-4-8.7-10.6-9.7-14.1l0,0
	c-0.4-1.1,0.1-2.2,0.8-3.1l0,0c0.7-0.8,1.5-1.5,2.4-1.9l0,0c0.9-0.5,1.8-0.3,2.3,0.4c0.8,0.8,2.2,2.7,3.2,4.5
	c0.6,1.1,0.2,2.2-0.4,2.6L19.1,19c-0.6,0.5-0.5,1.4-0.5,1.4S20.4,27,26.9,28.6z M37.1,23.2c-0.3,0-0.6-0.3-0.6-0.6
	c0-3.8-1.2-6.8-3.4-9c-2.2-2.2-5.1-3.3-8.4-3.3c-0.3,0-0.6-0.3-0.6-0.6C24,9.2,24.3,9,24.7,9h0c3.7,0,6.8,1.3,9.3,3.7
	c2.5,2.4,3.8,5.8,3.8,9.9C37.7,22.9,37.4,23.2,37.1,23.2C37.1,23.2,37.1,23.2,37.1,23.2z M33.8,21.9L33.8,21.9
	c-0.4,0-0.6-0.3-0.6-0.6c0-2.2-0.6-3.9-1.9-5.4c-1.3-1.4-3.1-2.2-5.5-2.4c-0.3,0-0.6-0.3-0.6-0.7c0-0.3,0.3-0.6,0.7-0.6
	c2.7,0.2,4.8,1.1,6.4,2.8c1.5,1.7,2.3,3.8,2.2,6.2C34.4,21.6,34.1,21.9,33.8,21.9z M30.5,20.8c-0.3,0-0.6-0.3-0.6-0.6
	c-0.1-2.1-1.1-3.2-3.2-3.3c-0.3,0-0.6-0.3-0.6-0.7c0-0.3,0.3-0.6,0.7-0.6c2.7,0.1,4.2,1.7,4.4,4.5C31.2,20.5,30.9,20.8,30.5,20.8
	C30.5,20.8,30.5,20.8,30.5,20.8z M44.7,28C43.5,38.2,36,38.8,34.7,39.3c-0.6,0.2-6,1.5-12.8,1.1c0,0-5.1,6.1-6.7,7.7
	c-0.2,0.2-0.5,0.3-0.7,0.3c-0.3-0.1-0.3-0.4-0.3-0.9l0-8.4v0C4.2,36.4,4.8,26,4.9,20.6C5,15.2,6,10.7,9.1,7.8
	c5.4-4.9,16.6-4.2,16.6-4.2c9.5,0,14,2.9,15,3.8C44.2,10.4,46,17.6,44.7,28z M43.4,4.9C42.1,3.7,37.1,0.1,25.9,0
	c0,0-13.2-0.8-19.6,5.1c-3.6,3.6-4.8,8.8-5,15.3c-0.1,6.5-0.3,18.7,11.4,22l0,0l0,5c0,0-0.1,2,1.3,2.5c1.6,0.5,2.6-1,4.1-2.7
	c0.8-0.9,2-2.3,2.9-3.3c8,0.7,14.2-0.9,14.9-1.1c1.6-0.5,10.8-1.7,12.3-13.9C49.8,16.4,47.5,8.5,43.4,4.9z"/>
</svg>
