<?xml version="1.0" encoding="utf-8"?>
<!-- Generator: Adobe Illustrator 22.0.1, SVG Export Plug-In . SVG Version: 6.00 Build 0)  -->
<svg version="1.1" id="Capa_1" xmlns="http://www.w3.org/2000/svg" xmlns:xlink="http://www.w3.org/1999/xlink" x="0px" y="0px"
	 viewBox="0 0 50 50" style="enable-background:new 0 0 50 50;" xml:space="preserve">
<style type="text/css">
	.st0{fill:#FFFFFF;}
</style>
<g>
	<path class="st0" d="M44.3,0.8H5.7C3,0.8,0.8,3,0.8,5.7v38.6c0,2.7,2.2,4.9,4.9,4.9h38.6c2.7,0,4.9-2.2,4.9-4.9V5.7
		C49.2,3,47,0.8,44.3,0.8z M40.9,30.3c0.9,0.9,2.8,2.4,2.5,3.9c-0.3,1.4-2.4,0.9-4.5,1c-2.3,0.1-3.7,0.2-5.1-1
		c-0.7-0.5-1.1-1.2-1.7-1.9c-0.6-0.6-1.3-1.8-2.3-1.7c-1.4,0.1-1.3,1.5-1.6,3c-0.1,0.8-0.8,1.4-1.6,1.5c-9,0.9-12.7-4.9-16-10.7
		c-1-1.7-2.2-4.5-3.1-6.5c-0.5-1.2,0.4-2.5,1.7-2.5h3.2c0.7,0,1.3,0.4,1.6,0.9c0.7,1.3,1.9,3.5,2.3,4.2c0.5,0.9,1.1,1.6,1.6,2.4
		c0.5,0.7,1.2,2,2.1,1.9c1.4-0.2,1.6-5.4,0.8-7.2v0c-0.5-1.2,0.3-2.6,1.5-2.7c2.2-0.2,4.8,0,5.6,0.7c1.1,1.2,0.4,3.8,0.2,5.9
		c-0.1,1.7,2.1,2.6,3.2,1.3c1.6-2,2.9-4.7,3.6-6.2c0.3-0.7,0.9-1.1,1.7-1.1l4.4,0.1c1.3,0,2.1,1.3,1.7,2.5c-0.5,1.2-1.1,2.5-1.7,3.4
		c-0.8,1.1-3.4,3.4-3.3,5.1C37.7,27.8,39.8,29.2,40.9,30.3z"/>
</g>
</svg>
