<?xml version="1.0" encoding="utf-8"?>
<!-- Generator: Adobe Illustrator 22.0.1, SVG Export Plug-In . SVG Version: 6.00 Build 0)  -->
<svg version="1.1" id="Слой_1" xmlns="http://www.w3.org/2000/svg" xmlns:xlink="http://www.w3.org/1999/xlink" x="0px" y="0px"
	 viewBox="0 0 50.6 50.2" style="enable-background:new 0 0 50.6 50.2;" xml:space="preserve">
<style type="text/css">
	.st0{fill:#2E7990;}
</style>
<path class="st0" d="M25.3,0.1c-13.8,0-25,11.2-25,25c0,4.6,1.3,9.1,3.6,13L0.4,48.8c-0.1,0.4,0,0.8,0.2,1c0.2,0.2,0.5,0.3,0.7,0.3
	c0.1,0,0.2,0,0.3,0l10.7-3.6c3.9,2.4,8.4,3.6,13,3.6c13.8,0,25-11.2,25-25C50.3,11.3,39.1,0.1,25.3,0.1z M41.3,35.2
	c0,0.9-0.4,1.7-1,2.4l-2.6,2.6c-0.6,0.6-1.5,1-2.3,1h-0.1c-14-0.6-25.4-12-26-26c0-0.9,0.3-1.8,1-2.5l2.6-2.6c0.6-0.6,1.5-1,2.4-1h1
	c1.4,0,2.6,0.9,3.1,2.2l2.3,6c0.4,1.2,0.2,2.5-0.7,3.5l-0.9,1c-0.4,0.5-0.5,1.1-0.1,1.7c1.2,1.7,3.6,4.8,7.3,7.3
	c0.5,0.3,1.2,0.3,1.6-0.2l1-1c0.9-0.9,2.3-1.1,3.4-0.7l6,2.3c1.3,0.5,2.2,1.7,2.2,3.1V35.2z"/>
</svg>
